<?xml version="1.0"?>
<svg xmlns="http://www.w3.org/2000/svg" id="_x33_0" enable-background="new 0 0 64 64" height="512px" viewBox="0 0 64 64" width="512px"><g><g><path d="m32 38c2.206 0 4-1.794 4-4v-2h-8v2c0 2.206 1.794 4 4 4zm2-4c0 1.103-.897 2-2 2s-2-.897-2-2z" data-original="#000000" class="active-path" data-old_color="#000000" fill="#9E9A9A"/><path d="m22 13.302 5.418-4.515c1.005-.838 1.582-2.07 1.582-3.379 0-1.174-.457-2.278-1.293-3.115-.834-.834-1.942-1.293-3.121-1.293h-.172c-.87 0-1.702.25-2.414.717-.712-.467-1.544-.717-2.414-.717h-.172c-1.179 0-2.287.459-3.127 1.298-.83.831-1.287 1.936-1.287 3.11 0 1.31.577 2.541 1.582 3.379zm-4.293-9.594c.456-.457 1.063-.708 1.707-.708h.172c.645 0 1.251.251 1.707.708l.707.706.707-.706c.456-.457 1.063-.708 1.707-.708h.172c.645 0 1.251.251 1.711.711.453.454.703 1.057.703 1.697 0 .714-.314 1.386-.863 1.843l-4.137 3.447-4.137-3.447c-.549-.457-.863-1.129-.863-1.843 0-.64.25-1.243.707-1.7z" data-original="#000000" class="active-path" data-old_color="#000000" fill="#9E9A9A"/><path d="m8 23.302 5.418-4.515c1.005-.838 1.582-2.07 1.582-3.379 0-1.174-.457-2.278-1.293-3.115-.834-.834-1.942-1.293-3.121-1.293h-.172c-.87 0-1.702.25-2.414.717-.712-.467-1.544-.717-2.414-.717h-.172c-1.179 0-2.287.459-3.127 1.298-.83.831-1.287 1.936-1.287 3.11 0 1.31.577 2.541 1.582 3.379zm-4.293-9.594c.456-.457 1.063-.708 1.707-.708h.172c.645 0 1.251.251 1.707.708l.707.706.707-.706c.456-.457 1.063-.708 1.707-.708h.172c.645 0 1.251.251 1.711.711.453.454.703 1.057.703 1.697 0 .714-.314 1.386-.863 1.843l-4.137 3.447-4.137-3.447c-.549-.457-.863-1.129-.863-1.843 0-.64.25-1.243.707-1.7z" data-original="#000000" class="active-path" data-old_color="#000000" fill="#9E9A9A"/><path d="m42 13.302 5.418-4.515c1.005-.838 1.582-2.07 1.582-3.379 0-1.174-.457-2.278-1.293-3.115-.834-.834-1.942-1.293-3.121-1.293h-.172c-.87 0-1.702.25-2.414.717-.712-.467-1.544-.717-2.414-.717h-.172c-1.179 0-2.287.459-3.127 1.298-.83.831-1.287 1.936-1.287 3.11 0 1.31.577 2.541 1.582 3.379zm-4.293-9.594c.456-.457 1.063-.708 1.707-.708h.172c.645 0 1.251.251 1.707.708l.707.706.707-.706c.456-.457 1.063-.708 1.707-.708h.172c.645 0 1.251.251 1.711.711.453.454.703 1.057.703 1.697 0 .714-.314 1.386-.863 1.843l-4.137 3.447-4.137-3.447c-.549-.457-.863-1.129-.863-1.843 0-.64.25-1.243.707-1.7z" data-original="#000000" class="active-path" data-old_color="#000000" fill="#9E9A9A"/><path d="m50.582 18.787 5.418 4.515 5.418-4.515c1.005-.838 1.582-2.07 1.582-3.379 0-1.174-.457-2.278-1.293-3.115-.834-.834-1.942-1.293-3.121-1.293h-.172c-.87 0-1.702.25-2.414.717-.712-.467-1.544-.717-2.414-.717h-.172c-1.179 0-2.287.459-3.127 1.298-.83.831-1.287 1.936-1.287 3.11 0 1.309.577 2.541 1.582 3.379zm1.125-5.079c.456-.457 1.063-.708 1.707-.708h.172c.645 0 1.251.251 1.707.708l.707.706.707-.706c.456-.457 1.063-.708 1.707-.708h.172c.645 0 1.251.251 1.711.711.453.454.703 1.057.703 1.697 0 .714-.314 1.386-.863 1.843l-4.137 3.447-4.137-3.447c-.549-.457-.863-1.129-.863-1.843 0-.64.25-1.243.707-1.7z" data-original="#000000" class="active-path" data-old_color="#000000" fill="#9E9A9A"/><path d="m59.802 28h-1.388l-.933-.933c-.688-.688-1.603-1.067-2.576-1.067-1.57 0-2.959 1.001-3.456 2.491l-.317.951-13.836 12.914-.82-1.641c1.719-1.07 3.034-2.736 3.651-4.714h.873c2.206 0 4-1.794 4-4 0-.925-.329-1.767-.858-2.446l.537-2.143c.213-.858.321-1.738.321-2.618 0-5.952-4.842-10.794-10.794-10.794h-4.412c-5.952 0-10.794 4.842-10.794 10.794 0 .879.108 1.76.322 2.618l.536 2.141c-.529.68-.858 1.522-.858 2.447 0 2.206 1.794 4 4 4h.874c.617 1.978 1.931 3.645 3.651 4.714l-.82 1.641-13.837-12.913-.317-.952c-.497-1.489-1.886-2.49-3.456-2.49-.973 0-1.888.379-2.576 1.067l-.933.933h-1.388c-1.763 0-3.198 1.435-3.198 3.198 0 1.519 1.081 2.838 2.57 3.136l2.918.583 13.512 14.477v13.606h24v-13.606l13.512-14.477 2.918-.583c1.489-.298 2.57-1.617 2.57-3.136 0-1.763-1.435-3.198-3.198-3.198zm-31.802 18.081 1.575 1.26c-.547.164-1.077.375-1.575.655zm13-12.081h-.498l.286-4h.212c1.103 0 2 .897 2 2s-.897 2-2 2zm-20-2c0-1.103.897-2 2-2h.212l.285 4h-.497c-1.103 0-2-.897-2-2zm2-5.395v.236c0 .131.005.261.015.388l.055.771h-.07c-.495 0-.964.102-1.403.267l-.335-1.339c-.174-.699-.262-1.417-.262-2.134 0-4.849 3.945-8.794 8.794-8.794h4.412c4.849 0 8.794 3.945 8.794 8.794 0 .716-.088 1.435-.262 2.133l-.335 1.34c-.438-.165-.908-.267-1.403-.267h-.069l.04-.561c.642-.761 1.029-1.744 1.029-2.816v-.623h-2v.623c0 1.311-1.066 2.377-2.377 2.377-.726 0-1.402-.325-1.855-.893l-1.185-1.48c-1.336-1.669-3.328-2.627-5.467-2.627h-.116c-1.506 0-2.965.442-4.219 1.277-1.115.744-1.781 1.988-1.781 3.328zm2.498 7.341-.489-6.862c-.006-.081-.009-.162-.009-.243v-.236c0-.67.333-1.292.891-1.664.923-.615 1.999-.941 3.109-.941h.116c1.527 0 2.95.684 3.904 1.877l1.185 1.48c.835 1.044 2.081 1.643 3.418 1.643.432 0 .85-.063 1.244-.18l-.365 5.126c-.243 3.395-3.099 6.054-6.502 6.054s-6.259-2.659-6.502-6.054zm6.502 8.054c.928 0 1.822-.159 2.663-.439l1.081 2.163-3.744 2.995-3.744-2.995 1.081-2.163c.841.28 1.735.439 2.663.439zm4 4.081v1.915c-.498-.28-1.028-.491-1.575-.655zm-33-14.883c0-.66.537-1.198 1.198-1.198h2.216l1.519-1.519c.31-.31.723-.481 1.162-.481.708 0 1.335.452 1.56 1.123l.177.531-4.092 3.274-2.776-.555c-.559-.112-.964-.606-.964-1.175zm39 17.408v12.394h-20v-12.394l-13.532-14.499 3.482-2.786 14.05 13.114v7.98l1.707-1.708c1.101-1.101 2.564-1.707 4.121-1.707h.344c1.557 0 3.021.606 4.121 1.707l1.707 1.708v-7.98l14.05-13.114 3.482 2.786zm18.037-16.233-2.776.555-4.092-3.274.177-.53c.224-.672.851-1.124 1.559-1.124.438 0 .852.171 1.162.481l1.519 1.519h2.216c.661 0 1.198.538 1.198 1.198 0 .569-.405 1.063-.963 1.175z" data-original="#000000" class="active-path" data-old_color="#000000" fill="#9E9A9A"/></g></g> </svg>
