<?xml version="1.0"?>
<svg xmlns="http://www.w3.org/2000/svg" xmlns:xlink="http://www.w3.org/1999/xlink" version="1.1" id="Capa_1" x="0px" y="0px" width="25px" height="25px" viewBox="0 0 97.75 97.75" style="enable-background:new 0 0 97.75 97.75;" xml:space="preserve"><g><g>
	<g>
		<path d="M25.238,24.779h0.078c-0.107,0.328-0.537,0.777-0.727,1.08    c-0.107,0.168-0.172,0.389-0.324,0.512c0.025,0.029-0.002,0,0.027,0.027c0.061,0.035,0.555-0.096,0.648-0.162    c0.057,0.01,0.051,0.008,0.082,0.027c0.029,0.047-0.328,0.676-0.406,0.756v0.027c0.135-0.016,0.342-0.037,0.432-0.109    c0.262-0.203,0.322-0.639,0.512-0.918c-0.008-0.045-0.018-0.09-0.027-0.133c-0.15-0.027-0.465,0.014-0.592,0.107h-0.027    c0.063-0.324,0.592-0.918,0.781-1.188c0.311-0.441,0.6-0.865,0.916-1.297c0.168-0.225,0.4-0.424,0.568-0.646    c0.188-0.25,0.389-0.58,0.646-0.754v-0.053h-0.107c-0.127,0.092-0.461,0.148-0.619,0.24c0.021,0.094,0.014,0.07,0.08,0.109    c-0.094,0.262-0.408,0.459-0.568,0.676c-0.252,0.34-0.533,0.66-0.781,0.998c-0.084,0.111-0.139,0.287-0.242,0.377    c-0.162,0.141-0.623,0.127-0.809,0.27h-0.054c0.039-0.227,0.619-0.949,0.783-1.105v-0.027c-0.279,0.039-0.494,0.186-0.676,0.322    c0.031,0.063,0.025,0.051,0.082,0.082c-0.1,0.162-0.246,0.283-0.352,0.432c-0.135,0.188-0.207,0.41-0.35,0.594    c0.01,0.027,0.02,0.053,0.025,0.08C24.412,25.088,25.129,24.859,25.238,24.779z" data-original="#000000" class="active-path" data-old_color="#000000" fill="#393737"/>
		<path d="M48.953,28.424c0.137,0.045,0.271,0.09,0.408,0.135    c0.106,0,0.223-0.002,0.293-0.027c-0.006-0.447-0.248-0.623-0.404-0.918c-0.076-0.15-0.119-0.355-0.242-0.459    c0.047-0.164,0.496-0.209,0.674-0.271c0.439-0.143,0.937-0.287,1.379-0.432c0.207-0.066,0.451-0.053,0.619-0.16    c0.1,0.01,0.15,0.02,0.189,0.078c0.098,0.146,0.178,1.139,0.107,1.432c-0.273,1.135-0.611,2.021-1.322,2.699v0.027    c0.264-0.043,0.387-0.299,0.566-0.432c0.717-0.543,1.2-1.346,1.456-2.35c0.15-0.588-0.096-1.168,0.138-1.672h-0.027    c-0.051-0.127-0.738-0.377-0.947-0.377c-0.111,0.119-0.271,0.283-0.432,0.35c-0.244,0.105-0.572,0.076-0.781,0.215    c-0.195-0.016-0.346-0.389-0.215-0.539c-0.008-0.061-0.006-0.076-0.027-0.107c-0.164-0.131-0.58-0.117-0.865-0.107    c-0.092,0.084-0.172,0.102-0.215,0.244h-0.025c-0.016,0.051,0.013,0.033,0.025,0.053c0.019,0.012,0.111-0.004,0.162,0.027    c0.307,0.031,0.299,0.385,0.459,0.566c-0.018,0.047-0.006,0.027-0.027,0.055c-0.104,0.084-0.887,0.309-1.052,0.352    c-0.127,0.031-0.281-0.047-0.377-0.055c-0.229-0.02-0.432,0.109-0.568,0.188c0.074,0.107,0.297,0.082,0.379,0.189    C48.566,27.51,48.695,28,48.953,28.424z" data-original="#000000" class="active-path" data-old_color="#000000" fill="#393737"/>
		<path d="M32.979,52.41v0.027c0.045,0.059,0.043,0.18,0.082,0.242    c-0.018,0.045-0.006,0.026-0.027,0.055c-0.111,0.074-0.275,0.041-0.432,0.078c-0.32,0.082-1.354,0.332-1.592,0.108    c-0.152-0.051-0.252-0.248-0.27-0.432c-0.068,0.004-0.1,0.004-0.135,0.026h-0.057c0.1,0.521,0.199,1.043,0.297,1.564h0.027v0.027    c0.945-0.162,1.889-0.326,2.834-0.486c-0.135-0.496-0.27-0.988-0.404-1.486c-0.076-0.113-0.318-0.1-0.459-0.158    c-0.236-0.098-0.529-0.313-0.674-0.512c-0.434-0.598-0.912-2.012-0.594-3.076c0.26-0.863,0.82-1.451,1.727-1.674    c0.459-0.111,0.953,0.043,1.242,0.189c0.824,0.424,1.176,1.027,1.43,2.023c0.326,1.287-0.09,2.47-0.945,2.859    c0.053,0.521,0.107,1.043,0.162,1.565c0.303-0.01,0.582-0.071,0.838-0.137c0.428-0.105,0.865-0.119,1.268-0.215    c0.293-0.07,0.717-0.01,0.943-0.162c0.055-0.115-0.168-0.92-0.215-1.105c-0.039-0.155-0.006-0.313-0.08-0.432v-0.055    c-0.063,0.008-0.127,0.018-0.189,0.027c0.012,0.813-0.568,0.703-1.215,0.862c-0.322,0.082-0.715,0.185-1.078,0.189    c0-0.117,0-0.234,0-0.353c0.029-0.057,0.504-0.264,0.592-0.324c0.314-0.219,0.635-0.563,0.838-0.889    c0.137-0.225,0.25-0.521,0.322-0.785c0.094-0.332,0.105-0.797,0.029-1.133c-0.055-0.23-0.033-0.41-0.109-0.621    c-0.291-0.809-0.902-1.4-1.672-1.727c-0.352-0.146-0.746-0.152-1.16-0.242c-0.367-0.08-1.029,0.084-1.297,0.162    c-1.299,0.383-2.18,1.01-2.59,2.266c-0.162,0.498-0.111,1.187,0.027,1.646C30.762,51.396,31.652,52.393,32.979,52.41z" data-original="#000000" class="active-path" data-old_color="#000000" fill="#393737"/>
		<path d="M22.268,34.25c0.422-0.432,1.311-1.514,1.297-2.318    c-0.043-0.043-0.082-0.111-0.109-0.162c-0.168-0.041-0.383-0.059-0.621-0.055c-0.061,0.219-0.186,0.404-0.27,0.594    c-0.182,0.418-0.346,0.834-0.512,1.242c-0.141,0.338-0.229,0.883-0.432,1.158v0.055C21.904,34.713,22.098,34.426,22.268,34.25z     M22.377,33.389c0.16-0.383,0.27-0.764,0.457-1.105c0.104,0.002,0.184,0.01,0.242,0.055c0.064,0.033,0.02-0.014,0.055,0.053    c0.055,0.135-0.121,0.348-0.188,0.457c-0.123,0.205-0.191,0.404-0.324,0.596c-0.121,0.174-0.314,0.309-0.432,0.484h-0.029    C22.193,33.723,22.305,33.557,22.377,33.389z" data-original="#000000" class="active-path" data-old_color="#000000" fill="#393737"/>
		<path d="M29.887,73.193l-0.098-0.105c0.029,0.033,0.061,0.067,0.092,0.102    c0.004,0.006,0.009,0.011,0.014,0.016C29.891,73.199,29.887,73.193,29.887,73.193z" data-original="#000000" class="active-path" data-old_color="#000000" fill="#393737"/>
		<path d="M20.836,63.365c0.164,0.088,0.199,0.467,0.268,0.648    c0.145,0.381,0.357,0.879,0.705,1.053v0.026h0.055c-0.043-0.305-0.215-0.579-0.324-0.838c-0.238-0.582-0.424-1.194-0.621-1.78    c-0.113-0.343-0.189-0.677-0.295-0.998c-0.057-0.168-0.043-0.359-0.137-0.486v-0.082c0.184,0.066,0.463,0.061,0.621,0.164h0.137    c-0.031-0.141-0.059-0.377-0.137-0.488c-0.082-0.131-0.605-0.133-0.754-0.24c-0.213-0.166-0.414-0.646-0.568-0.891    c-0.383-0.605-0.887-1.25-1.457-1.674c-0.303-0.225-0.512-0.457-1.053-0.459c-0.063,0.045-0.127,0.09-0.188,0.135    c-0.123,0.539,0.094,1.533,0.402,1.781v0.053c-0.129-0.035-0.268-0.104-0.35-0.188h-0.027c0.004,0.153,0.035,0.354,0.107,0.459    c0.031,0.133,0.248,0.239,0.377,0.27c0.17,0.707,0.404,1.432,0.648,2.08c0.197,0.516,0.297,1.01,0.512,1.508    c0.105,0.244,0.357,0.422,0.432,0.676h0.08c-0.061-0.229-0.186-0.441-0.268-0.646c-0.248-0.599-0.445-1.23-0.65-1.834    c-0.131-0.396-0.223-0.781-0.35-1.16c-0.047-0.144-0.033-0.291-0.107-0.406v-0.026c0.184,0.033,0.293,0.129,0.432,0.188    c0.314,0.138,0.615,0.188,0.943,0.324c0.242,0.1,0.545,0.235,0.838,0.271c0.033,0.243,0.174,0.887,0.297,1.053v0.08    c-0.41-0.281-0.402-0.683-1.135-0.619c-0.035,0.043-0.086,0.08-0.133,0.106c-0.068,0.166-0.072,0.441,0,0.619    c0.174,0.44,0.73,1.358,1.188,1.486C20.5,63.654,20.756,63.5,20.836,63.365z M20.137,60.289c-0.285-0.02-0.527-0.131-0.756-0.215    c-0.609-0.227-1.162-0.42-1.699-0.676c-0.066-0.244-0.52-1.121-0.271-1.429c0.02-0.028,0.037-0.057,0.055-0.081    c0.055-0.015,0.053-0.009,0.08-0.027c0.832,0.1,1.666,1.111,2.078,1.672c0.16,0.219,0.293,0.545,0.514,0.701L20.137,60.289    L20.137,60.289z M19.436,62.312c0.002-0.266,0.104-0.266,0.215-0.405c0.063-0.005,0.076-0.005,0.107-0.023    c0.418,0.002,0.514,0.189,0.756,0.351c0.039,0.16,0.064,0.229,0.053,0.401c-0.08,0.103-0.16,0.199-0.242,0.298    c-0.072,0.055-0.15,0.075-0.215,0.137C19.645,63.055,19.629,62.6,19.436,62.312z" data-original="#000000" class="active-path" data-old_color="#000000" fill="#393737"/>
		<path d="M54.32,28.043c0.129,0.064,0.129,0.229,0.191,0.352    c0.125,0.252,0.297,0.559,0.377,0.838v0.215c0.062,0.172,0.27,0.193,0.405,0.297c0.106-0.014,0.146-0.041,0.215-0.08    c-0.045-0.514-0.358-0.939-0.538-1.35c-0.056-0.129-0.142-0.309-0.162-0.432c-0.015-0.074,0.043-0.115,0-0.188    c-0.035-0.086-0.05-0.059-0.105-0.109c-0.041-0.027-0.021-0.012,0-0.053c0.047-0.1,0.145-0.195,0.188-0.299    c0.09-0.213,0.086-0.393,0.271-0.512c-0.027-0.279-0.437-0.311-0.754-0.295c-0.039,0.027-0.107,0.043-0.164,0.051    c0.032,0.07,0.055,0.086,0.135,0.107c0.078,0.793-0.478,1.518-0.838,1.996c-0.142,0.191-0.379,0.313-0.513,0.516h-0.026v0.025    C53.357,29.064,54.141,28.32,54.32,28.043z" data-original="#000000" class="active-path" data-old_color="#000000" fill="#393737"/>
		<path d="M19.785,34.789h0.377c0.063-0.08,0.125-0.162,0.189-0.242    c0.225-0.238,0.523-0.48,0.701-0.756h0.08v0.377c-0.205,0.186-0.525,0.473-0.619,0.756v0.215c-0.139,0.6,0.152,0.906,0.674,0.863    c0.342-0.316,0.904-0.578,0.838-1.213c-0.031-0.023-0.004,0.004-0.029-0.025c-0.055,0.012-0.051,0.006-0.08,0.027    c-0.195,0.102-0.525,0.973-0.918,0.727c-0.197,0.002-0.217-0.035-0.324-0.107c0.014-0.256,0.449-0.725,0.623-0.836    c0.021-0.412,0.129-0.854,0.08-1.24c-0.027-0.01-0.053-0.02-0.08-0.027c-0.096-0.031-0.17,0.115-0.244,0.189    c-0.195,0.197-0.441,0.406-0.594,0.646c-0.229-0.002-0.963-0.01-1.107,0.082h-0.08c0.068-0.176,0.588-0.75,0.432-1    c-0.008-0.027-0.016-0.055-0.027-0.082c-0.492,0.002-1.086,0.879-1.24,1.242c-0.08,0.182-0.08,0.391-0.189,0.539v0.027    c0.369-0.045,0.738-0.09,1.105-0.137C19.492,34.785,19.686,34.852,19.785,34.789z M18.867,34.277h-0.162    c0.074-0.297,0.367-0.637,0.729-0.648v0.135c-0.125,0.164-0.252,0.324-0.377,0.486C18.98,34.25,18.91,34.25,18.867,34.277z" data-original="#000000" class="active-path" data-old_color="#000000" fill="#393737"/>
		<path d="M17.463,48.469c0.057,0.014,0.098,0.025,0.135,0.055    c0.533-0.037,0.643-0.465,0.918-0.755c0.232,0.559,0.059,1.537-0.459,1.673c-0.221,0.152-0.547-0.047-0.674-0.161    c-0.441-0.41-0.535-1.031-0.701-1.728c-0.055-0.234,0.023-0.711-0.08-0.893c0.004-0.275,0.063-0.771-0.082-0.916v-0.027    l-0.053,0.002c-0.01,1.682-0.098,4.275,1.215,4.641c0.477,0.132,0.74-0.184,0.889-0.405c0.537-0.797,0.387-2.35-0.135-3.02    c-0.23,0.023-0.563,0.572-0.674,0.754c-0.055-0.01-0.051-0.008-0.08-0.027c-0.063-0.027-0.059-0.045-0.109-0.08    c-0.041-0.637,0.086-1.23,0.109-1.836c0.711,0.07,1.322,0.475,2.051,0.514c-0.002-0.127,0-0.297,0.051-0.379    c-0.006-0.063-0.004-0.074-0.027-0.107c-0.098-0.08-0.646-0.209-0.809-0.215v-0.027h-0.025c0.098-0.801-0.129-1.42-0.676-1.646    c-0.307-0.055-0.611-0.109-0.918-0.164c-0.156-0.057-0.232-0.182-0.352-0.268c-0.039-0.26-0.09-0.551,0.109-0.703    c-0.016-0.098-0.021-0.115-0.082-0.162v-0.027h-0.027c-0.09,0.156-0.166,0.338-0.215,0.541c-0.158,0.67,0.211,1.24,0.621,1.377    c0.27,0.043,0.539,0.09,0.811,0.135c0.213,0.082,0.309,0.258,0.457,0.404c-0.006,0.35-0.342,0.387-0.621,0.297    c-0.436-0.143-0.9-0.24-1.348-0.404c-0.119-0.043-0.227-0.115-0.379-0.135c-0.02,0.17-0.037,0.342-0.055,0.512    c0.379,0.117,0.756,0.234,1.133,0.352C17.367,46.59,16.99,47.732,17.463,48.469z" data-original="#000000" class="active-path" data-old_color="#000000" fill="#393737"/>
		<polygon points="51.092,68.764 51.094,68.764 51.092,68.762   " data-original="#000000" class="active-path" data-old_color="#000000" fill="#393737"/>
		<path d="M35.299,67.275c-0.041,0.092-0.035,0.242-0.078,0.352    c-0.234,0.572-0.311,0.693,0.053,1.24c0.162,0,0.184-0.025,0.27-0.08C35.652,68.34,35.668,67.486,35.299,67.275z" data-original="#000000" class="active-path" data-old_color="#000000" fill="#393737"/>
		<path d="M67.193,27.021c0.312,0.42,0.662,0.854,1.24,0.998    c0.651,0.162,0.969-0.604,1.215-0.893c0.252-0.295,0.807-0.367,0.998-0.756c0.069-0.141,0.022-0.418-0.027-0.539    c-0.123-0.289-0.727-1.105-0.971-1.266c0.016-0.164,0.092-0.17,0.16-0.27c0.168,0.082,0.229,0.32,0.352,0.457    c0.154,0.176,0.371,0.27,0.539,0.432c0.258,0.002,0.412-0.064,0.539-0.189h0.027c-0.064-0.18-0.302-0.305-0.431-0.432    c-0.283-0.283-0.498-0.639-0.783-0.916V23.62c-0.139,0.049-0.612,0.469-0.7,0.594c-0.17-0.066-0.267-0.25-0.404-0.35    c-0.461-0.348-0.895-0.797-1.697-0.783c-0.102,0.078-0.252,0.08-0.381,0.133c-0.359,0.158-0.738,0.471-0.889,0.838    c-0.17,0.41,0.004,1.018,0.135,1.322C66.381,25.992,66.816,26.512,67.193,27.021z M67.059,23.27    c0.459,0.004,0.678,0.313,0.945,0.514c0.658,0.494,1.213,1.107,1.699,1.781c0.219,0.297,0.514,0.469,0.512,0.996    c-0.084,0.08-0.107,0.152-0.244,0.189c-0.025,0.021-0.006,0.01-0.053,0.027c-0.381-0.635-0.932-1.168-1.375-1.756    c-0.145-0.191-0.369-0.348-0.512-0.539c-0.248-0.326-0.541-0.588-0.811-0.889c-0.078-0.09-0.115-0.176-0.214-0.244    C67.029,23.291,67.027,23.311,67.059,23.27z M66.383,23.648h0.107c0.135,0.203,0.367,0.344,0.514,0.539    c0.402,0.535,0.896,1.002,1.295,1.537c0.244,0.33,0.518,0.641,0.754,0.971c0.121,0.17,0.215,0.385,0.379,0.514    c-0.027,0.123-0.08,0.18-0.133,0.271c-0.477,0.111-0.715-0.201-0.971-0.461c-0.639-0.637-1.07-1.428-1.566-2.213    C66.592,24.537,66.158,24.035,66.383,23.648z" data-original="#000000" class="active-path" data-old_color="#000000" fill="#393737"/>
		<path d="M66.062,67.439c-0.787-0.195-1.449,0.192-2.268,0.135    c-0.078-0.082-0.137-0.129-0.188-0.242c-0.57,0.016-1.199,1.285-0.621,1.672c0.311,0.211,1.188,0.088,1.563,0    c0.212-0.049,0.535-0.094,0.701,0.027c0.228,0.168,0.188,0.805,0.106,1.16c-0.09,0.666-0.18,1.332-0.27,1.998    c-0.08,0.403-0.16,0.807-0.242,1.213c0.412-0.002,0.803-0.426,0.918-0.729c0.068-0.176,0.033-0.344,0.082-0.539    c0.143-0.565,0.162-1.241,0.297-1.836c0.086-0.383,0.027-0.75,0.107-1.104c0.059-0.269,0.098-1.154,0.027-1.404    C66.238,67.652,66.133,67.545,66.062,67.439z" data-original="#000000" class="active-path" data-old_color="#000000" fill="#393737"/>
		<path d="M66.791,58.18c-0.305-0.186-0.346-1.141-0.459-1.563    c-0.223-0.828-0.33-1.697-0.566-2.535c-0.152-0.539-0.356-1.097-0.297-1.756c0.094-0.095,0.156-0.218,0.27-0.298    c0.152-0.104,0.396-0.155,0.515-0.297c0.019-0.035-0.015-0.088-0.028-0.162c-0.313,0.052-0.599,0.238-0.863,0.351    c-0.539,0.231-1.068,0.367-1.617,0.597c-0.172,0.069-0.352,0.19-0.568,0.213v0.164c0.018,0.01,0.037,0.018,0.055,0.026    c0.027,0.029,0.703-0.269,0.916-0.08c0.244,0.084,0.213,0.4,0.353,0.595c-0.041,0.418-0.459,1.062-0.621,1.43    c-0.396,0.904-0.799,1.768-1.237,2.615c-0.17,0.326-0.371,0.91-0.597,1.16v0.026c-0.146-0.203-0.135-0.717-0.213-0.998    c-0.24-0.842-0.396-1.767-0.647-2.588c-0.047-0.158-0.209-0.873-0.107-1.027c0.035-0.37,0.562-0.532,0.863-0.646    c-0.008-0.063-0.017-0.127-0.025-0.189c-0.479,0.072-0.975,0.326-1.404,0.486c-0.406,0.152-0.777,0.213-1.188,0.352    c-0.203,0.07-0.434,0.188-0.672,0.215v0.027h-0.029c0.012,0.076,0.018,0.117,0.055,0.162c0.109,0.072,0.703-0.24,0.945-0.053    c0.379,0.129,0.391,0.734,0.512,1.133c0.328,1.076,0.496,2.27,0.811,3.373c0.078,0.275,0.267,1.15,0.08,1.375    c-0.1,0.301-0.602,0.42-0.891,0.541c0.01,0.055,0.018,0.107,0.025,0.16c0.416-0.062,0.793-0.254,1.164-0.381    c0.725-0.242,1.41-0.443,2.107-0.701c-0.013-0.063-0.021-0.127-0.029-0.188c-0.297,0.078-0.527,0.168-0.945,0.16    c-0.055-0.047-0.105-0.09-0.158-0.135c-0.047-0.146-0.094-0.289-0.137-0.433c0.029-0.34,0.465-0.969,0.619-1.27    c0.461-0.881,0.861-1.771,1.266-2.697c0.158-0.354,0.516-0.869,0.568-1.266c0.127,0.076,0.09,0.299,0.135,0.459    c0.092,0.322,0.145,0.668,0.242,1.023c0.191,0.684,0.266,1.416,0.459,2.133c0.07,0.264,0.178,0.715,0.055,0.998    c-0.123,0.274-0.574,0.459-0.863,0.565c0.01,0.06,0.023,0.125,0.055,0.162c0.003,0.006,0.617-0.194,0.726-0.242    c0.752-0.319,1.522-0.651,2.291-0.942c-0.01-0.064-0.017-0.129-0.024-0.188C67.49,58.096,67.053,58.344,66.791,58.18z" data-original="#000000" class="active-path" data-old_color="#000000" fill="#393737"/>
		<path d="M76.986,36.947c-0.063,0.938-0.867,1.236-1.725,0.865    c-0.615-0.264-1.104-0.846-1.488-1.35c-0.127-0.17-0.326-0.313-0.457-0.486c-0.121-0.164-0.209-0.346-0.353-0.486v-0.027h-0.053    c0.071,0.291,0.239,0.557,0.351,0.811c0.456,1.049,1.036,1.783,1.918,2.4c0.413,0.293,1.104,0.754,1.7,0.324    c1.039-0.748,0.533-3.537,0.106-4.586c-0.112-0.275-0.2-0.492-0.323-0.729c-0.205-0.391-0.418-0.965-0.998-0.971    c-0.146,0.121-0.297,0.219-0.379,0.404c-0.529,1.201,0.56,2.555,1.053,3.211C76.514,36.561,76.719,36.814,76.986,36.947z     M75.91,34.008h0.133c0.266,0.275,0.51,0.537,0.676,0.916c0.088,0.205,0.104,0.549,0.215,0.73    c-0.016,0.047-0.004,0.025-0.024,0.055c-0.07,0.068-0.367-0.285-0.433-0.352C76.174,35.055,75.568,34.525,75.91,34.008z" data-original="#000000" class="active-path" data-old_color="#000000" fill="#393737"/>
		<path d="M29.895,73.204c0.001,0.001,0.001,0.001,0.002,0.003    c0.006,0.004,0.006,0.006,0.014,0.014C29.904,73.215,29.899,73.209,29.895,73.204z" data-original="#000000" class="active-path" data-old_color="#000000" fill="#393737"/>
		<path d="M43.1,68.221c0.027-0.012,0.057-0.018,0.082-0.029    c-0.014-0.354-0.689-0.502-1.055-0.401c-0.162,0.047-0.35,0.146-0.512,0.188c-0.127,0.011-0.252,0.019-0.379,0.025    c-0.043-0.439-0.26-0.779-0.27-1.24c0.404-0.008,0.914-0.061,1.186-0.215c-0.004-0.135-0.031-0.135-0.08-0.213    c-0.309-0.072-0.838-0.088-1.08,0.078c-0.068-0.002-0.1-0.002-0.133-0.025c-0.152-0.19-0.08-0.582-0.217-0.783v-0.106    c0.291-0.063,0.766-0.115,0.918-0.324c0.021-0.026,0.01-0.006,0.025-0.053c-0.023-0.022-0.033-0.047-0.053-0.082    c-0.422-0.104-0.605-0.033-0.971,0.108c-0.113-0.364,0.023-0.653-0.35-0.756c0.08-0.139,0.344-0.133,0.512-0.188    c0.26-0.088,0.557-0.203,0.783-0.324c0.018-0.047,0.004-0.027,0.027-0.055c-0.016-0.137-0.053-0.133-0.109-0.215    c-0.389-0.031-0.701,0.008-0.918,0.215h-0.051c0.033-0.201,0.158-0.49,0.27-0.646c0.076-0.111,0.217-0.096,0.271-0.242h0.025    v-0.028c-0.055-0.07-0.107-0.146-0.162-0.216c-0.127-0.088-0.309-0.098-0.43-0.188c-0.18-0.004-0.352-0.002-0.459,0.054    c0.014,0.104,0.061,0.17,0.08,0.241c0.076,0.279-0.193,1.142-0.297,1.269c-0.084,0.106-1.059,0.459-1.322,0.379    c-0.063-0.021-0.246-0.111-0.297-0.162c-0.021-0.027-0.01-0.006-0.027-0.053c0.383-0.359,0.658-1.16,1.188-1.322    c0.01-0.043,0.02-0.09,0.029-0.133c-0.133-0.137-0.773-0.812-1.107-0.596c-0.027,0.01-0.053,0.018-0.08,0.026    c0,0.229,0.115,0.403,0.053,0.646c-0.123,0.484-0.398,1.062-0.646,1.459c-0.148,0.238-0.473,0.496-0.486,0.838    c0.441-0.043,0.547-0.498,0.889-0.62c0.102,0.092,0.199,0.182,0.299,0.27c0.141,0.211,0.113,0.531,0.188,0.81    c0.127,0.584,0.254,1.168,0.379,1.754c0.016,0.289,0.035,0.576,0.055,0.865c0.07,0.26,0.285,0.713,0.564,0.774    c0.045,0.022,0.084,0.017,0.135-0.026c0.094-0.076,0.043-0.213,0.109-0.322c0.15-0.109,0.418-0.082,0.621-0.137    c0.551-0.146,1.195-0.136,1.807-0.271C42.391,68.182,42.871,68.355,43.1,68.221z M38.727,64.715    c0.043-0.072,0.76-0.186,0.838-0.135c0.285,0.133,0.184,0.553,0.352,0.809c-0.059,0.133-0.715,0.332-0.918,0.353    C38.961,65.453,38.914,64.869,38.727,64.715z M39.078,66.037c0.207-0.018,0.74-0.195,0.891-0.297h0.027    c0.051,0.244,0.082,0.666,0.217,0.863c-0.098,0.237-0.693,0.217-0.918,0.352C39.199,66.9,39.076,66.223,39.078,66.037z     M39.564,68.303c-0.057-0.385-0.24-0.723-0.244-1.133c0.416-0.008,0.629-0.176,0.971-0.217c0.021,0.252,0.176,0.961,0.297,1.133    c0.002,0.016,0.002,0.037,0.002,0.055C40.264,68.211,39.926,68.305,39.564,68.303z" data-original="#000000" class="active-path" data-old_color="#000000" fill="#393737"/>
		<path d="M51.436,39.809c0.539,0.162,0.926,0.773,1.238,1.188    c0.137,0.182,0.35,0.328,0.486,0.512c0.578,0.77,1.232,1.463,1.807,2.24c0.225,0.301,0.527,0.563,0.729,0.889    c0.121-0.002,0.146-0.018,0.216-0.055c0.146-0.633,0.228-1.271,0.405-1.916c0.082-0.295,0.185-0.643,0.213-0.971    c0.226,0.08,0.404,0.414,0.544,0.594c0.42,0.561,1.016,1.025,1.401,1.619c0.111-0.006,0.123-0.018,0.189-0.053    c0.121-0.916,0.236-1.834,0.354-2.752v-0.27c0.123-0.545,0.094-1.203,0.215-1.752c0.164-0.742-0.069-1.465,0.675-1.648    c0.016-0.072,0.038-0.1,0-0.162c-0.017-0.045-0.007-0.025-0.027-0.053c-0.028-0.021-0.024-0.016-0.078-0.027    c-0.209,0.152-0.771,0.256-1.053,0.324c-0.213,0.053-0.437,0.006-0.595,0.107c-0.024,0.01-0.053,0.018-0.079,0.027    c0.008,0.055,0.016,0.109,0.026,0.162c0.308,0.1,0.592-0.021,0.728,0.242c0.09,0.172,0.075,0.789,0.026,1.025    c-0.172,0.793-0.1,1.699-0.27,2.482c-0.061,0.271,0.016,0.799-0.107,0.998v0.055c-0.164-0.078-0.271-0.291-0.379-0.432    c-0.24-0.318-0.596-0.574-0.838-0.891c-0.145-0.191-0.297-0.42-0.484-0.568c0.023-0.52,0.177-1.064,0.3-1.537    c0.09-0.355,0.092-0.686,0.271-0.945c0.1-0.146,0.344-0.242,0.512-0.324c-0.002-0.066-0.004-0.1-0.027-0.135    c-0.01-0.027-0.016-0.053-0.025-0.08c-0.371,0.055-0.686,0.232-1.027,0.324c-0.309,0.084-0.62,0.063-0.864,0.188    c0.008,0.063,0.008,0.076,0.028,0.107c0.011,0.027,0.017,0.055,0.027,0.08c0.947-0.053,0.803,0.463,0.621,1.189    c-0.059,0.221-0.02,0.527-0.137,0.701v0.053H56.43c-0.195-0.295-0.486-0.58-0.729-0.836c-0.1-0.09-0.199-0.18-0.297-0.27    c-0.07-0.094-0.109-0.213-0.189-0.299c0.018-0.297,0.26-0.373,0.486-0.457c-0.01-0.125-0.035-0.141-0.08-0.217    c-0.703,0.104-1.314,0.498-2.105,0.539v0.029h-0.027c0.005,0.066,0.005,0.1,0.027,0.135v0.053    c0.154,0.027,0.385-0.035,0.568,0.027c0.289,0.104,0.551,0.441,0.727,0.676c0.267,0.35,0.681,0.646,0.943,0.998    c0.139,0.186,0.297,0.432,0.486,0.566c-0.025,0.475-0.156,0.975-0.27,1.404c-0.06,0.219-0.023,0.5-0.136,0.674    c-0.019,0.047-0.006,0.025-0.026,0.053c-0.259-0.488-0.754-0.861-1.078-1.295c-0.627-0.832-1.322-1.582-1.972-2.4    c0-0.115,0.007-0.184,0.056-0.242c0.049-0.158,0.244-0.303,0.432-0.324c0.01-0.084,0.021-0.092-0.027-0.164    c-0.012-0.025-0.018-0.053-0.027-0.08c-0.549,0.084-1.039,0.338-1.563,0.486c-0.272,0.076-0.633,0.039-0.838,0.189    c-0.026,0.008-0.056,0.018-0.08,0.027c0.015,0.104,0.041,0.119,0.08,0.189C51,39.803,51.227,39.744,51.436,39.809z" data-original="#000000" class="active-path" data-old_color="#000000" fill="#393737"/>
		<path d="M36.838,66.926c-0.053,0.234,0.52,0.756,0.701,0.893    c0.092,0.068,0.213,0.224,0.352,0.16c0.07-0.006,0.094-0.012,0.135-0.026c0.031-0.072,0.08-0.164,0.027-0.24    C38.037,67.371,37.16,66.992,36.838,66.926z" data-original="#000000" class="active-path" data-old_color="#000000" fill="#393737"/>
		<path d="M36.436,66.791c-0.113-0.184-0.336-0.232-0.486-0.377    c-0.047-0.018-0.027-0.006-0.055-0.027c0.348-0.18,0.719-0.379,1.08-0.539c0.098,0.107,0.545,0.541,0.701,0.457    c0.027-0.008,0.053-0.016,0.08-0.024c-0.008-0.152-0.016-0.308-0.027-0.46c-0.34-0.34-0.842-0.62-1.404-0.727v0.025H36.3    c0.063,0.188,0.271,0.365,0.434,0.459v0.08c-0.32,0.047-0.604,0.201-0.891,0.299c-0.199,0.064-0.436,0.055-0.596,0.16h-0.08    c0.117-0.326,0.502-0.594,0.701-0.863c0.393-0.529,0.703-1.178,1.322-1.484c-0.016-0.25-0.734-0.764-0.998-0.594    c-0.066,0.035-0.021-0.014-0.053,0.053c-0.041,0.099,0.092,0.22,0.053,0.379c-0.053,0.207-0.566,1.187-0.703,1.295v0.027    c-0.277-0.094-0.488-0.354-0.754-0.486c0.047-0.248,0.256-0.438,0.377-0.618c0.311-0.468,0.559-0.912,1.027-1.218    c-0.004-0.357-0.584-0.732-0.973-0.725c0,0.164,0.086,0.258,0.055,0.402c-0.096,0.441-0.297,0.885-0.459,1.27    c-0.105,0.248-0.154,0.545-0.324,0.728c-0.037,0.02-0.336-0.005-0.406-0.054c-0.102-0.002-0.203,0.004-0.268,0.025v0.055    c0.455,0.439,0.945,0.59,1.564,0.865c-0.086,0.445-0.535,0.744-0.756,1.08c-0.113,0-0.205-0.008-0.27-0.055    c-0.063,0.012-0.064,0.014-0.107,0.027c0.012,0.396,0.342,0.733,0.674,0.811c0.223-0.25,0.502-0.371,0.836-0.512    c0.309,0.317,0.395,0.774,0.514,1.293c0.051,0.227-0.033,0.475,0.027,0.674c0.104,0.35,0.289,0.455,0.457,0.701h0.189    c0.119-0.635-0.172-1.25-0.322-1.754C36.525,67.225,36.48,67.008,36.436,66.791z" data-original="#000000" class="active-path" data-old_color="#000000" fill="#393737"/>
		<path d="M50.25,81.467c0.01-0.023,0.016-0.051,0.025-0.078    c-0.664-0.027-1.333-0.055-1.997-0.08c-0.084,0.056-0.213,0.023-0.322,0.053c-0.139,0.041-0.291,0.104-0.406,0.162    c0.018,0.047,0.006,0.027,0.027,0.054c0.162,0.129,1.107,0.137,1.295,0h0.055v-0.054c-0.285-0.09-0.807,0.14-1.025,0h-0.028    v-0.026c0.717-0.049,1.52-0.029,2.268-0.027c-0.072,0.05-0.225,0.035-0.297,0.082c-0.027,0.011-0.055,0.019-0.08,0.025v0.057    c0.162,0.023,0.322,0.052,0.484,0.078c0.025,0.027-0.002,0.002,0.025,0.024c-0.238,0.16-0.854,0.097-1.078-0.024v-0.055    c-0.121-0.056-0.676,0.057-0.781,0.079c-0.092,0.021-0.186-0.01-0.244,0.027c-0.113,0.006-0.123,0.021-0.188,0.053    c0.014,0.089,0.023,0.08,0.055,0.136c0.172,0.041,0.475,0.045,0.672,0.106v-0.026h0.027v-0.027    c-0.1-0.037-0.381-0.016-0.486-0.075h-0.053c0.09-0.072,0.971-0.191,1.133-0.082c0.047,0.016,0.027,0.004,0.055,0.024    c-0.145,0.026-0.289,0.058-0.434,0.08c0.018,0.045,0.008,0.026,0.029,0.053c0.043,0.031,0.131,0.031,0.215,0.027    c-0.027,0.051-0.037,0.073-0.082,0.106c0.01,0.017,0.02,0.035,0.027,0.055c0.383,0,0.703-0.038,1.024-0.106    c0.19-0.043,0.426,0.035,0.565-0.055h0.218v-0.054c-0.369-0.002-1.287-0.037-1.513,0.107h-0.08    c0.023-0.029-0.002-0.002,0.025-0.027c0.107-0.123,0.322-0.062,0.512-0.106c0.301-0.07,0.797-0.193,1.056,0    c0.069,0.045,0.024-0.004,0.024,0.08c0.072-0.002,0.123-0.002,0.162-0.023h0.188v-0.057c-0.244-0.062-0.607-0.17-0.812-0.295    C50.4,81.586,50.453,81.486,50.25,81.467z" data-original="#000000" class="active-path" data-old_color="#000000" fill="#393737"/>
		<path d="M48.875,0C21.883,0,0,21.883,0,48.875S21.883,97.75,48.875,97.75    S97.75,75.867,97.75,48.875S75.867,0,48.875,0z M82.617,43.617c0.047-0.047,0.078-0.137,0.068-0.359    c0.119,0.877,0.203,1.76,0.256,2.646c-0.062,0.131-0.084,0.412-0.084,0.412s-0.043,0.318-0.105,0.313    c-0.016-0.004-0.037-0.004-0.066-0.016c-0.084-0.043-0.215-0.215-0.317-0.947c-0.138-0.979-0.107-2.012-0.107-2.012    s-0.028-0.105,0.031-0.129c0.062-0.021,0.129,0.068,0.129,0.068S82.512,43.723,82.617,43.617z M81.857,39.08    c0.146,0.549,0.266,1.105,0.385,1.662c-0.17-0.701-0.361-1.352-0.51-1.82L81.857,39.08z M81.73,38.92    c0.041,0.125,0.08,0.256,0.121,0.395c-0.043-0.139-0.086-0.277-0.123-0.396L81.73,38.92z M81.631,38.793l0.012,0.016l-0.11-0.125    l0.098,0.105L81.631,38.793z M80.248,34.482c0.006-0.002,0.004-0.008,0.01-0.01c0.521,1.219,0.977,2.459,1.346,3.709    c-0.028,0-0.057-0.002-0.088,0.006c-0.01,0.002-0.018,0.006-0.024,0.01c-0.003-0.008-0.005-0.012-0.005-0.012    s-0.213-0.623-0.704-1.867c-0.433-1.088-0.552-1.555-0.574-1.654c-0.004-0.016-0.004-0.021-0.004-0.021    S80.174,34.506,80.248,34.482z M76.623,28.146c0.027-0.021,0.047-0.045,0.068-0.068c0.586,0.834,1.135,1.695,1.646,2.578    c-0.062,0.01-0.11,0.088,0.017,0.42c0.078,0.209,0.092,0.285,0.076,0.297c-0.025,0.018-0.128-0.139-0.128-0.139    c-0.633-0.803-1.936-2.928-1.936-2.928l-0.005-0.002C76.449,28.262,76.545,28.207,76.623,28.146z M76.004,28.465    c0.016-0.006,0.027-0.012,0.041-0.02c0.039-0.016,0.08-0.031,0.113-0.049c0,0,0.01-0.002,0.025-0.01c0,0,0,0,0.002,0l0.004,0.01    c0.697,1.123,1.94,2.928,1.94,2.928s0.504,0.654,0.617,0.66c0.112,0.008-0.058-0.506-0.058-0.506s-0.055-0.205-0.01-0.234    c0.467,0.842,0.896,1.701,1.289,2.572v0.002c0,0-0.1,0.049-0.1,0.225c0,0.344,0.338,1.131,0.338,1.131s0.711,1.805,1.162,3.068    c-0.145,0.08-0.232,0.205-0.547,0.258c-0.404,0.064-0.869,0.207-1.326,0.898c-0.137,0.207-0.188,0.428-0.197,0.637    c0,0.004-0.002,0.008-0.002,0.01c-0.002,0.014,0.002,0.027,0,0.041c0,0.084,0.004,0.166,0.016,0.242    c0.002,0.023,0.004,0.045,0.008,0.068c0.011,0.064,0.025,0.123,0.039,0.18c0.007,0.021,0.011,0.047,0.017,0.066    c0.002,0.004,0.002,0.008,0.004,0.012c0.058,0.178,0.117,0.293,0.117,0.293s0.244,0.404,0.362,0.611    c0.117,0.209,0.728,1.51,0.025,2.461c0,0-0.377,0.438-1.041,0.586c-0.586,0.131-0.438-0.557-0.496-0.924    c0,0-0.088-1.557-0.844-2.447c-0.666-0.781-1.871,0.605-2.475,1.068c-0.562,0.428-2.199,2.121-4.555,3.357l-0.086-1.133    c0,0-0.06-0.607-0.388-1.555c-0.666-1.928-1.321-2.811-1.321-2.811s-0.265-0.566-0.847-0.799c-0.147-0.059-0.312-0.102-0.5-0.102    c-0.906,0-0.978,0.832-0.978,0.832s-0.211,0.656-0.559,0.859c-0.299,0.174-1.104,0.643-1.656,0.369    c-0.078-0.041-0.152-0.094-0.217-0.166c-0.105-0.115-0.191-0.236-0.281-0.357c-0.102-0.137-0.192-0.275-0.274-0.418    c-0.285-0.494-0.464-1.016-0.509-1.523c-0.069-0.783,0.252-1.102,0.252-1.102s0.064-0.201,1.101-0.201    c1.16,0,1.373-0.357,1.373-0.357s0.222-0.203,0.203-0.656c-0.019-0.455-0.195-1.43-0.531-2.049    c-0.047-0.084-0.11-0.186-0.18-0.287c-0.257-0.387-0.634-0.865-0.972-1.256l-0.625-0.113l0.625,0.111    c0.404-0.15,0.961-0.369,1.562-0.639c1.226-0.555,1.81-1.016,2.371-1.336c0,0,1.239-0.764,1.969-0.742    c0.002,0,0.171-0.006,0.187,0.217c0.016,0.225,0.07,0.557,0.147,0.748c0.076,0.191,0.5,1.242,1.859,1.396    c0.172,0.02,0.329,0.021,0.478,0.012c0.079-0.006,0.147-0.023,0.223-0.037c0.059-0.01,0.125-0.014,0.18-0.027    c0.102-0.027,0.193-0.064,0.279-0.102c0.018-0.006,0.039-0.01,0.055-0.018c0.092-0.043,0.172-0.09,0.244-0.139    c0.008-0.004,0.018-0.006,0.025-0.012c0.313-0.211,0.461-0.441,0.461-0.441s0.467-0.715-0.336-1.564c0,0-0.654-0.701-0.675-0.756    c0,0-0.041-0.063,0.029-0.117c0.021-0.014,0.043-0.029,0.082-0.041c0.114-0.031,0.928-0.26,1.705-0.512    c0.364-0.117,0.719-0.24,0.993-0.35C75.965,28.479,75.986,28.471,76.004,28.465z M71.68,50.713    c0.359,0.744,1.158,0.82,1.738,0.676c0.58-0.144,0.771-0.463,1.092-1.16c0.318-0.692,0.492-0.742,0.492-0.742    s0.129-0.186,0.719-0.114c0.588,0.065,0.715,0.481,0.715,0.481s0.338,0.801,0.271,1.644c-0.063,0.838-0.25,1.217-0.442,1.517    c-0.193,0.301-1.199,0.202-1.199,0.202s-1.729-0.192-1.885,1.884c-0.154,2.075,0.541,3.516,0.541,3.516    c0.254,0.551,0.512,0.84,0.725,0.994s0.414,0.356,0.414,0.356s0.039,0.033,0.092,0.103h-0.01c-1.232,0.998-1.596,1.32-2.578,2.016    c0,0-1.121,0.836-2.346,1.496c-1.23,0.662-2.675,0.582-2.675,0.582s-0.391-0.043-0.2-0.326c0.188-0.281,0.434-0.971,0.526-1.32    c0.097-0.352,0.283-1.24-0.433-1.522c-0.715-0.283-2.059,0.133-2.059,0.133s-3.086,0.822-4.344,2.203    c-1.223,1.342-0.197,1.94-0.197,1.94s0.48,0.332,0.947,0.498c0.439,0.154,0.35,0.295,0.24,0.377c0,0-1.377,0.879-3.006,1.349    c0,0-2.229,0.682-4.394,0.819c-2.123,0.138-3.036,0.193-3.062,0.193c-0.231-0.455-0.473-0.863-0.473-0.863    s-0.252-0.389-0.375-0.934c-0.102-0.459-0.113-1.029,0.209-1.59c0.707-1.229,1.865-1.6,1.865-1.6s1.023-0.228,2.043,0.01    c0.967,0.221,1.455-0.148,1.455-0.148s0.332-0.145,0.572-0.717c0.021-0.049,0.037-0.111,0.057-0.166    c0.018-0.051,0.037-0.096,0.053-0.152c0.033-0.121,0.063-0.254,0.084-0.404c0.179-1.178-0.01-3.366-1.58-3.803    c-1.571-0.43-2.405,0.385-2.405,0.385s-0.847,0.935-1.121,1.07c-0.274,0.137-0.697,0.385-0.697,0.385s-0.59,0.354-0.991,0.441    c-0.248,0.055-1.088-1.047-1.278-1.988c-0.014-0.062-0.031-0.129-0.039-0.19c-0.078-0.785-0.229-1.443-0.221-2.832    c0-0.197,0.004-0.408,0.014-0.64c0-0.002,0-0.006,0-0.01c0.277-0.018,0.561-0.031,0.844-0.043    c2.438-0.088,3.645-0.377,4.939-0.668c1.293-0.291,3.115-1.35,3.387-1.553c0.236-0.176,0.703-0.389,0.891-1.037    c0.021-0.068,0.033-0.148,0.047-0.227c0.004-0.023,0.012-0.045,0.015-0.07c0-0.002,0.002-0.004,0.002-0.006    c0.114-0.883-0.931-1.473-0.931-1.473s-0.83-0.438-1.006-0.634c-0.088-0.098-0.092-0.192-0.072-0.264    c0.021-0.068,0.058-0.113,0.058-0.113s0.472-1.012,1.976-1.605c1.504-0.593,2.518-0.756,3.147-0.824    c0.637-0.066,0.851,0.162,0.938,0.271c0.086,0.105,0.086,0.33,0.015,0.559c-0.07,0.211-0.306,0.709-0.441,0.951    c-0.133,0.244-0.354,0.83-0.215,1.106c0.144,0.275,0.574,0.404,1.133,0.304c0.562-0.103,2.037-0.521,3.335-1.06    c1.297-0.541,3.459-1.6,3.459-1.6s0.008-0.004,0.016-0.008l0.002-0.006c0,0,0,0,0.002-0.002l0.057-0.479    c0.002,0.002,0.002,0.006,0.004,0.01l-0.059,0.485C70.48,48.195,71.328,49.982,71.68,50.713z M75.201,60.094l-0.016,0.432    c0.145,0.392,0.248,1.011,0.1,1.92c-0.197,1.214-0.486,1.912-0.678,2.273c-0.035,0.062-0.068,0.125-0.104,0.18    c-0.015,0.021-0.021,0.031-0.032,0.047c-0.031,0.05-0.064,0.091-0.099,0.136c-0.035,0.047-0.103,0.125-0.187,0.219    c-0.039,0.041-0.078,0.086-0.119,0.123c-0.018,0.015-0.034,0.029-0.049,0.043c-0.045,0.045-0.096,0.093-0.147,0.138    c-0.017,0.014-0.022,0.022-0.037,0.035c-0.261,0.221-0.584,0.428-0.937,0.471c-0.762,0.09-1.588,0.08-2.356,0.813    c-0.011,0.013-0.024,0.019-0.035,0.029c-0.024,0.024-0.053,0.055-0.078,0.082c-0.014,0.014-0.028,0.022-0.041,0.039    c-0.006,0.006-0.01,0.012-0.014,0.018c-0.074,0.082-0.149,0.185-0.224,0.298c-0.621,0.932-0.479,1.967-0.479,1.967    s0.08,0.783,0.922,0.567c0.839-0.213,1.697-0.858,2.345-1.373c0.646-0.512,0.25,0.175,0.25,0.175    c-0.57,1.11-1.652,2.223-1.652,2.223s-0.377,0.328-1.207,1.498c-0.215,0.303-0.395,0.574-0.545,0.811h-0.002    c0,0-0.002,0.004-0.004,0.008c-0.851,0.455-2.07,1.062-2.84,1.375c0.037-0.014,0.08-0.031,0.119-0.047    c-0.039,0.018-0.082,0.035-0.119,0.051c-0.398,0.166-0.713,0.271-0.943,0.338c0.002-0.002,0.002-0.002,0.004-0.002    c-0.01,0.002-0.012,0.004-0.02,0.006c0.004,0,0.01-0.004,0.016-0.004c-0.245,0.068-0.391,0.086-0.436,0.062    c-0.005,0-0.009,0-0.011-0.002c-0.008-0.008-0.004-0.018,0-0.029c0.002-0.004-0.002-0.006,0.002-0.01    c0.086-0.127,0.313-0.312,0.313-0.312s0.271-0.273,0.271-0.549c0,0,0.021-0.101-0.105-0.17c-0.125-0.068-0.397-0.107-0.989,0.016    c-0.289,0.061-0.57,0.143-0.832,0.229c-0.006,0.002-0.015,0.005-0.021,0.007c-0.354,0.118-0.674,0.248-0.914,0.354    c0.006,0,0.006,0,0.008,0c0,0,0.025-0.011,0.068-0.027c-0.336,0.148-0.555,0.265-0.555,0.265s-0.596,0.274-1.01,0.6l0.012-0.014    c-0.016,0.012-0.025,0.022-0.041,0.037c-0.051,0.039-0.098,0.082-0.141,0.123c-0.008,0.008-0.018,0.016-0.025,0.024    c-0.055,0.054-0.096,0.106-0.129,0.162c-0.006,0.008-0.01,0.017-0.016,0.022c-0.029,0.056-0.047,0.107-0.049,0.16    c0,0.004,0,0.008,0,0.01c0,0.058,0.016,0.111,0.059,0.16c0,0,0.08,0.129,0.434,0.242c0.041,0.012,0.059,0.027,0.066,0.045    c0.004,0.006,0.004,0.012,0.004,0.019c0,0.01-0.006,0.021-0.014,0.032c-0.008,0.011-0.017,0.021-0.029,0.033    c-0.006,0.004-0.014,0.01-0.02,0.014c-0.021,0.015-0.041,0.029-0.066,0.043l0.01-0.004c-0.201,0.115-0.578,0.23-0.578,0.23    c-0.932,0.305-1.648,0.443-2.553,0.631c-0.936,0.193-1.746,0.369-2.293,0.49v-0.002l0.006-0.002    c-0.059-0.223-0.145-0.441-0.24-0.648c-0.012-0.024-0.022-0.051-0.037-0.078c-0.045-0.094-0.09-0.184-0.137-0.271    c-0.01-0.019-0.018-0.035-0.027-0.051c-0.051-0.099-0.104-0.188-0.152-0.272c-0.023-0.037-0.043-0.068-0.064-0.104    c-0.023-0.037-0.045-0.072-0.066-0.105c-0.061-0.096-0.112-0.18-0.147-0.232c-0.213-0.344-0.567-0.539-1.631-0.36    c-1.062,0.176-2.31,0.707-2.31,0.707s-1.289,0.678-2.25,0.551c-0.241-0.03-0.434-0.116-0.587-0.229    c-0.459-0.342-0.568-0.945-0.561-1.174c0.01-0.306,0.207-0.57,0.707-0.767c0.502-0.196,1.682-0.463,3.4-0.551    c1.719-0.091,2.358-1.209,2.358-1.209c0.195-0.285,0.529-0.877-0.034-1.384c-0.082-0.073-0.183-0.145-0.304-0.213    c-0.601-0.336-0.834-0.407-1.035-0.502c-0.075-0.033-0.147-0.071-0.231-0.127c-0.006-0.004-0.012-0.008-0.021-0.012    c-0.014-0.01-0.028-0.021-0.043-0.031c-0.036-0.024-0.069-0.049-0.112-0.082c-0.115-0.088-0.232-0.182-0.349-0.281    c-0.346-0.297-0.662-0.651-0.812-1.102c-0.018-0.059-0.045-0.137-0.069-0.201l-0.349-0.227l-0.229-0.15l-0.004-0.002l0.002-0.002    h-0.002l0.002-0.002v0.002l0.002,0.002c0,0,0,0,0-0.002l0.002-0.004l0.008,0.006c-0.002,0-0.004,0-0.006,0l0.574,0.379    c0.498-0.041,1.15-0.088,1.73-0.115c1.151-0.057,2.959-0.321,4.008-0.553c1.051-0.231,2.639-0.723,3.812-1.33    c1.178-0.606,1.234-1.037,1.234-1.037s0.088-0.125,0.033-0.309c-0.033-0.109-0.117-0.24-0.303-0.375    c-0.49-0.355-0.707-0.26-1.142-0.699c-0.054-0.055-0.086-0.11-0.104-0.172c-0.134-0.42,0.485-0.926,0.485-0.926    s0.418-0.59,2.74-1.484c2.323-0.896,2.715-0.596,2.834-0.496c0.028,0.023,0.053,0.063,0.069,0.107    c0.052,0.143,0.049,0.361,0.015,0.523c-0.05,0.217-0.338,0.992-0.494,1.399c-0.078,0.205-0.131,0.449-0.082,0.658    c0.045,0.203,0.187,0.371,0.496,0.438c0.631,0.132,1.513-0.008,2.338-0.303c1.974-0.705,2.563-1.563,5.82-3.93    c0.008-0.008,0.016-0.012,0.021-0.018l0.012-0.441c0,0,0,0,0.002-0.002v0.002C75.197,60.086,75.199,60.092,75.201,60.094z     M41.662,72.016c0.521,0.586,1.066,0.838,1.066,0.838s0.322,0.144,0.316,0.23c-0.004,0.111-0.01,0.209-0.25,0.348    c0,0-0.949,0.558-2.801,0.588c-1.852,0.029-2.668,0.015-3.211-0.475c-0.449-0.404,0.113-1.258,0.113-1.258s0.225-0.418,0-0.992    c-0.225-0.572-1.512-0.582-1.512-0.582l-1.783-0.09c-2.111-0.057-4.898-0.293-6.141-0.447c0,0-0.006,0-0.021-0.004v0.002    l-0.035-0.055c0,0-1.277-2.301-1.143-3.146c0,0,0.035-0.432,0.58-0.703c0.078-0.039,0.166-0.074,0.266-0.104    c0.557-0.172,0.482,0.369,2.121,0.664c0,0,0.822,0.219,1.375-0.136c0.172-0.106,0.32-0.268,0.406-0.51    c0.369-1.026-0.385-2.313-0.385-2.313s-0.99-1.812-2.213-1.879c-0.01-0.002-0.014,0-0.021,0c-0.619-0.025-0.463,0.399-1.428,0.629    c0,0-1.305,0.127-1.717-0.656c-0.5-0.946-0.693-2.022-0.693-2.741c0-0.025,0-0.041,0-0.064c0.012-0.449,0.027-0.605,0.051-0.73    c0.01-0.045,0.021-0.094,0.035-0.16c0.016-0.069,0.045-0.162,0.078-0.281c0.033-0.122,0.068-0.272,0.092-0.465l-0.002-0.006    c0.555-0.062,1.443-0.158,2.469-0.27c1.725-0.184,2.883-0.371,3.955-0.209c1.072,0.16,1.416,0.996,1.416,0.996    s0.02,0.055,0.006,0.127c-0.014,0.072-0.055,0.16-0.174,0.238c-0.24,0.153-0.512,0.373-0.646,0.606    c-0.002,0.002-0.002,0.002-0.004,0.004c0,0,0,0,0,0.002c-0.016,0.027-0.031,0.06-0.047,0.095c-0.115,0.26-0.188,0.711,0.156,1.293    c0.389,0.658,1.461,1.086,2.371,0.979c0.91-0.107,2.275-0.457,3.082-0.668c0.662-0.174,1.262-0.461,1.564-0.885    c0.1-0.143,0.17-0.299,0.193-0.473c0.102-0.688-1.047-1.564-1.047-1.564s-0.551-0.418-0.619-0.512    c-0.018-0.025-0.02-0.045-0.018-0.063c0.016-0.043,0.082-0.063,0.082-0.063s0.646-0.158,0.924-0.283    c0.275-0.129,1.039-0.441,2.287-0.832c1.25-0.391,3.824-0.85,3.824-0.85s1.422-0.228,3.195-0.371l0.006-0.006    c0.002-0.002,0.004-0.002,0.006-0.002l0.219-0.253l0.066-0.075l-0.289,0.334c-0.006,0.168-0.012,0.34-0.018,0.52    c-0.1,2.643,0.49,4,0.49,4c0.334,0.725,0.697,1.248,1.189,1.58c0.49,0.334,1.16,0.105,1.377,0    c0.215-0.109,0.813-0.385,1.324-0.707c0.512-0.326,0.494-0.465,1.11-1.033c0.619-0.568,1.416-0.412,1.416-0.412    s0.756,0.018,1.187,0.895c0.436,0.875,0.348,2.121,0.238,2.574c-0.109,0.451-0.306,0.746-0.728,0.666    c-0.425-0.076-1.121-0.146-1.377-0.156c-0.257-0.01-0.978-0.034-1.632,0.138c-0.641,0.168-1.504,0.629-2.327,1.967    c-0.642,1.037-0.326,2.056-0.181,2.457c0.117,0.316,0.435,0.754,0.711,1.293l0.517,0.173v0.002l-0.513-0.173    c-0.875,0.105-2.356,0.316-3.815,0.668c-1.789,0.438-3.494,0.783-4.709,1.566C42.047,70.824,41.139,71.43,41.662,72.016z     M27.439,70.188l-0.004,0.097c0-0.002,0-0.002,0-0.002L27.439,70.188z M24.711,57.061h-0.002l0.002-0.002V57.061z M46.158,42.596    c-0.133-0.953-0.17-1.178-1.012-4.068c1.104-0.152,2.002-0.293,3.02-0.49c0.684-0.135,1.418-0.293,2.314-0.498    c0,0,2.076-0.371,2.506-1.129c0.252-0.441,0.701-1.047-0.027-1.654c-0.002-0.002-0.002-0.004-0.004-0.004v-0.002    c0,0-0.084-0.109-0.539-0.211c-0.191-0.043-0.363-0.084-0.529-0.133c-0.223-0.068-0.436-0.156-0.654-0.314    c-0.385-0.273-0.377-0.592-0.377-0.592s-0.032-0.305,0.588-0.652c0,0,0.326-0.24,0.976-0.514c0.218-0.09,0.47-0.186,0.756-0.277    c1.154-0.363,2.488-0.201,2.488-0.201s0.56,0.061,0.467,0.438c-0.096,0.379-0.412,1.012-0.424,1.336    c-0.008,0.195-0.002,0.41,0.142,0.607c0.047,0.064,0.11,0.125,0.19,0.184c0.082,0.063,0.18,0.121,0.308,0.174    c0.397,0.166,0.901,0.195,1.227,0.193c0.193,0,0.322-0.012,0.322-0.012s0.94-0.047,2.487-0.545c0.97-0.313,1.938-0.65,2.525-0.857    c0.346-0.123,0.561-0.199,0.59-0.211c0.006-0.002,0.006-0.002,0.017-0.004v0.004c1.354,1.328,1.602,2.945,1.602,2.945    s0.184,0.637-0.191,0.686c-0.328,0.043-1.094,0.049-1.094,0.049s-0.291,0.029-0.764,0.125c-0.471,0.098-0.771,0.6-0.838,0.947    c-0.067,0.347-0.271,1.303,0.532,2.803c0.802,1.496,1.814,1.428,1.814,1.428c0.879-0.076,1.149-0.23,1.661-0.578    c0.498-0.338,0.726-1.092,0.755-1.236c0.028-0.144,0.098-0.289,0.211-0.289c0.118,0,0.08,0,0.35-0.039    c0.273-0.037,0.478,0.154,0.697,0.609c0.146,0.291,0.918,1.563,1.142,2.318c0.223,0.752,0.416,1.506,0.434,2.182    c0.01,0.266,0.047,0.572,0.09,0.844l0.213,0.309v0.002v0.004l-0.221-0.322c-1.131,0.564-3.695,1.811-5.367,2.396    c0,0-1.279,0.52-1.801,0.532c0,0-0.115,0.004-0.023-0.121c0.092-0.127,0.189-0.221,0.346-0.504    c0.158-0.285,0.441-0.926,0.441-1.586s-0.764-1.307-1.828-1.193c-1.062,0.115-2.08,0.41-3.307,0.883    c-1.225,0.471-2.279,1.471-2.42,2.301c-0.143,0.83,0.754,1.309,0.754,1.309s1.012,0.514,1.141,0.789    c0.129,0.277,0.033,0.535,0.033,0.535s-0.088,0.275-0.533,0.533c-0.443,0.256-1.65,0.877-1.65,0.877s-1.506,0.83-3.793,1.031    c0,0-2.086,0.178-3.285,0.238c-0.014,0-0.027,0-0.041,0.002c0.051-1.535-0.135-2.73-0.453-3.621    c-0.105-0.295-0.227-0.56-0.359-0.787c-0.547-0.965-1.443-1.478-1.885-1.691s-1.463-0.314-2.162-0.059    c-0.697,0.256-0.844,0.463-1.098,0.904c-0.258,0.443-0.57,0.414-0.57,0.414s-0.934,0.021-1.268-1.379    c-0.006-0.027-0.016-0.045-0.021-0.074c-0.045-0.215-0.072-0.404-0.096-0.59c-0.004-0.039-0.016-0.088-0.02-0.127    c-0.014-0.123-0.014-0.223-0.018-0.334c-0.004-0.084-0.014-0.18-0.014-0.258C40.615,45.308,41,44.929,41,44.929    s0.219-0.324,0.936-0.422c0.717-0.098,1.18,0.078,1.729,0.215c0.549,0.137,0.963,0.08,1.65-0.254    c0.395-0.193,0.656-0.461,0.783-0.838C46.193,43.35,46.217,43.014,46.158,42.596z M57.682,22.287    c0.482-0.125,1.414-0.434,1.613-0.51c0.191-0.074,1.205-0.41,1.934-0.535c0.734-0.129,1.398-0.104,1.638,0.025    c0.038,0.033,0.2,0.188,0.266,0.332c0.091,0.197,0.347,0.684,0.787,0.908c0.369,0.184,0.642,0.291,1.461,0.219    c1.166-0.293,1.297-0.943,1.179-1.164c-0.152-0.291-0.609-0.588-0.609-0.588s-0.613-0.393-0.746-0.578    c-0.014-0.02-0.014-0.033-0.021-0.049c0.33-0.043,0.699-0.092,1.135-0.209c0.211-0.057,0.375-0.113,0.496-0.172l0.187,0.057    c0.362,0.291,2.44,1.955,3.149,2.422c0.146,0.096,0.34,0.066,0.451-0.068l0.012-0.016c0.091,0.07,0.185,0.148,0.216,0.182    c0,0,0.44-0.004,0.661,0.221c0.289,0.236,1.095,0.945,1.304,1.342l0.104,0.313c-0.06,0.111-0.049,0.246,0.024,0.35    c0.024,0.037,0.646,0.918,1.435,1.781c0.08,0.107,0.735,0.992,1.098,1.375c-0.189,0.078-0.461,0.176-0.824,0.273    c-0.76,0.205-1.492,0.545-1.492,0.545s-0.607,0.199-0.375,0.691c0.021,0.047,0.047,0.08,0.07,0.121    c0.012,0.035,0.029,0.07,0.055,0.107c0,0,0.012,0.012,0.016,0.016c0.207,0.324,0.433,0.49,0.433,0.49s0.037,0.035,0.088,0.094    c0.029,0.031,0.062,0.068,0.095,0.109c0.014,0.018,0.026,0.033,0.041,0.051c0.053,0.066,0.104,0.141,0.147,0.217    c0.069,0.119,0.125,0.244,0.131,0.357c0.015,0.357-0.137,0.52-0.522,0.732c-0.383,0.215-0.732,0.256-0.732,0.256    s-0.912,0.164-1.363-0.264c-0.453-0.428-0.537-1.135-0.537-1.135s-0.035-0.598-0.783-0.852c-0.752-0.256-1.672,0.289-1.672,0.289    s-0.727,0.383-1.502,0.887c-0.774,0.504-2.244,1.117-3.164,1.441l-0.104,0.477v0.002h-0.002v-0.002h0.002l0.049-0.232l0.053-0.242    c0-0.002,0-0.002,0-0.002c-0.063-0.061-0.18-0.182-0.32-0.338c-0.35-0.387-0.883-1.008-1.368-1.59    c-0.476-0.568-0.902-1.098-1.06-1.322c-0.385-0.551-0.442-0.678-0.512-0.861c-0.023-0.045-0.023-0.105-0.014-0.172    c0.029-0.203,0.164-0.473,0.289-0.619c0.162-0.191,0.355-0.23,0.752-0.145c0.396,0.088,0.656,0.262,1.285,0.059    c0.629-0.201,0.66-0.676,0.707-1.158c0.035-0.363-0.281-1.029-0.639-1.547c-0.119-0.174-0.242-0.33-0.357-0.453    c-0.467-0.494-1.121-0.572-1.576-0.543c-0.451,0.029-0.713,0.357-0.977,0.504c-0.263,0.145-0.752,0.289-0.976,0.193    c-0.11-0.049-0.252-0.098-0.412-0.215c-0.157-0.121-0.336-0.311-0.522-0.645c-0.248-0.436-0.459-0.834-0.596-1.098    C57.393,22.365,57.529,22.326,57.682,22.287z M44.564,25.588c1.578-0.463,2.121-0.832,2.178-0.873    c0.072-0.051,0.105-0.133,0.121-0.217c0.164-0.104,0.313-0.209,0.43-0.32c0,0,0.426-0.201,0.016-0.6    c-0.002-0.002-0.002-0.002-0.002-0.002c-0.414-0.398-0.613-0.52-0.613-0.52s-0.068-0.037-0.102-0.121    c-0.01-0.023-0.014-0.053-0.016-0.084c0.035-0.068,0.084-0.141,0.16-0.227c0.236-0.264,0.578-0.445,1.02-0.543    c0.229-0.051,0.793-0.109,1.34-0.084c0.424,0.02,0.674,0.055,0.84,0.115c-0.022,0.25-0.059,0.592-0.051,0.697    c0.006,0.105,0.018,0.342,0.26,0.564c0.049,0.137,0.138,0.266,0.293,0.33c0.104,0.064,0.531,0.258,1.732,0.135    c0.021-0.004,0.52-0.092,1.297-0.322c1.861-0.555,2.902-0.861,3.094-0.912c0.017-0.004,0.037-0.01,0.056-0.016    c0.094,0.189,0.25,0.484,0.518,0.939c0.617,1.061,1.689,1.469,2.152,1.42c0.405-0.041,1.104-0.23,1.371-0.529    c0.271-0.301,0.543-0.262,0.543-0.262c0.586-0.039,0.731,0.455,1.215,1.15c0.483,0.695,0.187,1.236,0.187,1.236    c-0.32,0.424-0.681,0.338-1.009,0.27c-0.245-0.051-0.271-0.08-0.557-0.135c-0.892-0.117-1.188,0.539-1.188,0.539    c-0.64,0.986,0.116,1.701,0.116,1.701s1.685,2.258,2.968,3.65c-0.97,0.332-2.228,0.754-2.228,0.754s-1.713,0.631-2.841,0.785    c-1.125,0.154-1.375-0.01-1.526-0.162c-0.153-0.152,0.026-0.691,0.026-0.691s0.46-0.938,0.236-1.424    c-0.221-0.488-1.67-0.615-1.692-0.615c-0.029,0-1.582-0.18-3.035,0.637c-1.293,0.725-1.463,1.119-1.463,1.119    s-0.412,0.641,0.077,1.273c0.55,0.717,1.279,0.781,1.279,0.781s0.697,0.055,0.859,0.26c0.164,0.203,0.051,0.428,0.051,0.428    s-0.229,0.629-1.52,0.895c0,0-2.166,0.635-6.209,1.209c-0.807-2.912-0.857-4.746-0.857-4.746    c-0.061-0.563,0.008-0.803,0.258-0.965c0.107-0.053,0.293-0.129,0.551-0.166l0.523-0.029c0.105,0.006,0.223,0.016,0.344,0.023    l0.123,0.012c0.234,0.02,0.561,0.045,0.945-0.117c0.002,0,0.004,0,0.006-0.002c0.012-0.004,0.021-0.01,0.033-0.014    c0.072-0.027,0.141-0.057,0.203-0.092c0.289-0.16,1.08-0.592,1.025-1.475c-0.053-0.881-0.756-1.926-1.33-2.285    c-0.146-0.09-0.301-0.148-0.459-0.18c-0.475-0.098-0.98,0.039-1.289,0.27c-0.412,0.307-0.576,0.701-0.828,0.828    c-0.248,0.123-0.602,0.402-0.975,0.324c-0.004-0.002-0.008,0-0.012-0.002c-0.379-0.09-0.396-0.936-0.559-1.889    c-0.064-0.385-0.119-0.705-0.164-0.959c-0.018-0.109-0.033-0.203-0.049-0.287C42.881,26.002,43.617,25.865,44.564,25.588z     M31.244,41.115c-0.045,0.092-0.287,0.281-0.287,0.281s-0.094,0.057-0.445,0.455c-0.354,0.4-0.457,0.789-0.475,1.133    c-0.002,0.043,0.004,0.098,0.014,0.16c0.076,0.428,0.5,1.236,1.635,1.477c1.297,0.271,2.781-0.232,2.781-0.232    s0.973-0.215,1.898-1.143c0.422-0.422,0.475-0.879,0.402-1.262c-0.092-0.492-0.395-0.861-0.395-0.861s-0.15-0.207-0.441-0.301    c0,0-0.068-0.021-0.074-0.062c-0.002-0.016,0.004-0.033,0.021-0.053c0.045-0.049,0.131-0.205,0.348-0.357    c0.131-0.076,0.324-0.166,0.59-0.26c0.688-0.178,2.717-0.818,7.543-1.455l0.002-0.004c0,0.008,0.35,1.4,0.615,2.303    c0.266,0.904,0.383,1.797,0.424,1.982c0.039,0.188,0.029,0.521-0.217,0.717c-0.246,0.199-0.846,0.365-0.973,0.385    s-0.363-0.029-0.678-0.139c-0.316-0.107-0.629-0.127-0.629-0.127s-0.758-0.127-1.563,0.119c-0.807,0.244-1.416,1.068-1.465,2.102    c-0.049,1.034-0.039,1.553,0.365,2.467c0.4,0.914,1.129,1.436,1.678,1.444c0.553,0.009,1.002-0.274,1.318-0.717    c0.313-0.442,0.402-0.514,0.402-0.514c0.373-0.205,1.326-0.296,1.807-0.117c0.484,0.176,1.369,0.731,1.857,1.828    c0.395,0.885,0.518,1.875,0.498,3.655l0.396,0.306l-0.004,0.004l-0.4-0.308c-1.119,0.093-2.414,0.244-2.414,0.244    s-2.926,0.416-5.605,1.244c-2.275,0.699-2.707,1.086-2.707,1.086s-0.486,0.406-0.08,0.99c0,0,0.23,0.369,0.701,0.736    c0.467,0.369,0.844,0.721,0.791,0.898c-0.055,0.182-0.199,0.262-0.199,0.262s-0.654,0.582-3.338,1.033    c0,0-1.725,0.334-2.256-0.187c-0.531-0.522-0.297-0.873-0.297-0.873s0.035-0.117,0.422-0.358c0,0,0.648-0.406,0.443-1.179    c-0.209-0.772-1.453-1.735-2.797-1.728c0,0-1.57,0.005-5.59,0.521c0,0-0.008,0-0.014,0.002c0.002-0.178-0.002-0.362-0.014-0.565    c-0.063-1.133-0.145-2.877-0.297-3.894c-0.152-1.018-0.432-2.592-1.359-2.637c0,0-0.457-0.037-1.113,0.604    c-0.604,0.584-1.148-0.484-1.18-1.136c-0.035-0.764,0.09-1.537,0.279-1.906c0.049-0.092,0.115-0.162,0.191-0.215    c0.232-0.158,0.541-0.168,0.615-0.162c0.1,0.01,0.379,0.117,0.711,0.324c0.252,0.156,0.572,0.195,0.832,0.088    c0.086-0.035,0.166-0.084,0.234-0.152c0.268-0.27,0.645-0.584,0.799-1.771c0.152-1.188,0.152-2.42,0.008-3.893l-0.002-0.008    c0.262-0.045,0.605-0.105,0.996-0.166c0.434-0.066,0.926-0.133,1.441-0.184c1.586-0.156,3.266-0.178,3.971-0.09    C30.969,40.957,31.291,40.998,31.244,41.115z M19.563,29.938c0.055-0.039,0.141-0.096,0.191-0.113    c0.082-0.025,0.152-0.078,0.195-0.15c0.008-0.014,0.738-1.234,1.057-1.699c0.104-0.064,0.209-0.127,0.268-0.16    c0.027,0.01,0.057,0.018,0.088,0.021c0.094,0.012,0.191-0.018,0.266-0.08c0.037-0.033,0.389-0.352,1.203-1.451    c0.063-0.074,0.086-0.17,0.074-0.262c-0.008-0.063-0.031-0.121-0.07-0.17c0.02-0.086,0.053-0.203,0.08-0.264    c0.006-0.004,0.012-0.012,0.018-0.018c0.012-0.014,1.168-1.373,2.092-2.156c0.002,0,0.117-0.082,0.297-0.104    c0.033-0.004,0.063-0.014,0.092-0.025c0.043-0.018,1.07-0.451,2.32-1.547c0.051-0.045,0.092-0.117,0.109-0.184    c0,0,0.041-0.154,0.264-0.453c0.182-0.24,0.588-0.51,0.979-0.67c-0.127,0.115-0.293,0.262-0.5,0.484    c-0.209,0.225-0.279,0.361-0.262,0.432c0.016,0.068,0.119,0.07,0.256,0.023c0.068-0.023,0.154-0.057,0.26-0.102    c0.004-0.002,0.008-0.002,0.012-0.004v-0.001c0.266-0.113,0.652-0.299,1.201-0.58l0.021,0.033    c0.098,0.146,0.295,0.193,0.449,0.105c0.002,0,0.24-0.129,0.607-0.273c-0.211,0.451-0.572,1.158-0.984,1.67    c0,0-0.254,0.377-0.453,0.283c-0.195-0.09-0.428-0.098-0.619-0.059c-0.193,0.043-0.789,0.24-1.33,0.965    c-0.537,0.725-0.602,1.27-0.311,1.432c0.289,0.162,0.713-0.051,0.967-0.277c0.189-0.168,0.338-0.268,0.434-0.305    c0.033,0.066,0.08,0.117,0.143,0.15c-0.002,0.045-0.006,0.09-0.014,0.113c-0.018,0.064-0.104,0.932-1.107,2.67    c-0.252,0.436-0.576,1.082-0.729,1.395l-0.002,0.002l-0.004-0.004c-1.627,0.303-2.842,0.68-3.256,0.836    c-0.416,0.158-0.422,0.057-0.422,0.057c-0.059-0.068-0.02-0.197,0.047-0.324c0.039-0.08,0.088-0.156,0.135-0.221    c0.063-0.088,0.115-0.152,0.115-0.152s0.445-0.609,0.621-1.168c0.178-0.561-0.607-0.482-0.607-0.482    c-0.518,0.082-0.889,0.326-1.316,0.842c-0.33,0.4-0.533,0.947-0.609,1.236c-0.049,0.184-0.131,0.352-0.131,0.352    s-0.063,0.113-0.307,0.221c-0.285,0.123-0.838,0.271-0.838,0.271s-0.369,0.031-0.635-0.103c-0.09-0.045-0.264-0.031-0.404-0.008    C19.529,29.953,19.549,29.949,19.563,29.938z M19.064,30.338c0-0.002,0.002-0.004,0.002-0.004l0.004-0.004h0.002l-0.117,0.172    c0.041-0.063,0.08-0.119,0.115-0.172C19.066,30.334,19.066,30.334,19.064,30.338z M16.729,34.848    c-0.006,0.016-0.006,0.02-0.01,0.031c-0.039,0.146-0.057,0.229-0.057,0.229c-0.004,0.066-0.002,0.113,0.006,0.146    c0.012,0.043,0.031,0.066,0.072,0.064c0.025-0.002,0.086-0.092,0.104-0.047c0.012,0.029,0.008,0.107-0.025,0.287    c-0.063,0.318-0.357,1.164-0.473,1.508c-0.117,0.346-0.246,0.58-0.338,0.564c-0.029-0.006-0.047-0.027-0.063-0.051    c-0.025-0.047-0.029-0.109-0.029-0.109s-0.004-0.053-0.023-0.09c-0.016-0.033-0.045-0.051-0.092-0.008    C16.076,36.52,16.387,35.678,16.729,34.848z M15.578,38.096l0.002-0.006c0,0,0.031-0.084,0.059-0.125    c0.021-0.031,0.039-0.033,0.035,0.068c-0.01,0.227,0.133,0.246,0.133,0.246c0.092-0.012,0.189-0.117,0.291-0.285v0.002    c0.004-0.004,0.006-0.01,0.008-0.016c0.041-0.066,0.082-0.146,0.125-0.236c0.012-0.023,0.021-0.051,0.033-0.076    c0.031-0.07,0.064-0.146,0.098-0.227c0.014-0.035,0.029-0.072,0.045-0.111c0.029-0.076,0.061-0.16,0.092-0.244    c0.014-0.043,0.029-0.084,0.045-0.125c0.025-0.076,0.051-0.152,0.078-0.23c0.018-0.051,0.033-0.098,0.051-0.15    c0.014-0.043,0.023-0.082,0.037-0.123c0.029-0.092,0.059-0.184,0.084-0.275c0.02-0.066,0.039-0.131,0.055-0.195    c0.02-0.068,0.037-0.131,0.055-0.197c0.016-0.059,0.031-0.117,0.045-0.176c0.025-0.102,0.049-0.197,0.068-0.285    c0.01-0.047,0.018-0.086,0.027-0.131c0.012-0.055,0.023-0.104,0.031-0.15c0.004-0.016,0.01-0.039,0.012-0.053    c0.025-0.139,0.041-0.232,0.041-0.256c0-0.074-0.039-0.131-0.104-0.094c-0.066,0.037-0.086,0.01-0.086,0.01    c-0.002-0.016,0.002-0.041,0.008-0.066c0-0.006,0-0.008,0.002-0.014c0.045-0.217,0.236-0.689,0.236-0.689    c0.102-0.258,0.209-0.51,0.318-0.754c0.012-0.023,0.021-0.045,0.031-0.068c0.053-0.115,0.105-0.229,0.16-0.34    c0.004-0.008,0.006-0.014,0.01-0.02c0.422-0.873,0.863-1.6,1.174-2.08c0.057-0.008,0.061-0.006,0.164-0.037    c0,0,0.275-0.047,0.76,0.082c0.623,0.164,1.408-0.338,1.408-0.338s0.012-0.008,0.031-0.02c0.002-0.002,0.006-0.006,0.008-0.008    c0.02-0.012,0.043-0.027,0.074-0.051c0.006-0.004,0.014-0.01,0.021-0.016c0.029-0.021,0.061-0.045,0.096-0.074    c0.012-0.01,0.025-0.021,0.037-0.031c0.033-0.027,0.068-0.057,0.104-0.09c0.01-0.008,0.018-0.016,0.027-0.025    c-0.002,0.002-0.004,0.004-0.006,0.004c0.168-0.16,0.354-0.371,0.477-0.633l0.246-0.686c0,0,0.199-0.662,0.754-0.873    c0,0,0.215-0.115,0.566-0.121c0.219-0.002,0.268,0.094,0.275,0.164c0.004,0.043-0.008,0.076-0.008,0.076s-0.039,0.158-0.4,0.623    c-0.361,0.461-0.457,0.814-0.457,0.814s-0.121,0.277-0.037,0.484c0.029,0.068,0.082,0.129,0.168,0.17c0,0,0.164,0.096,0.641-0.063    c0.479-0.158,2.061-0.574,3.027-0.723l0.006-0.004l-0.002,0.006c-0.18,0.516-0.412,1.326-0.32,1.779    c0.139,0.689,0.789,0.689,0.789,0.689s0.146,0.006,0.361-0.041c0.014,0.008,0.021,0.021,0.037,0.027    c0.117,0.039,0.346,0.043,0.742-0.158c0.033-0.016,0.057-0.021,0.086-0.029c0.234,0.217,0.299,0.857,0.299,0.99    c0,0.18-0.004,1.178-0.695,1.664c0,0-0.279,0.215-0.672,0.215c-0.396,0-0.65-0.115-0.65-0.115s-0.672-0.186-1.086,0.057    c-0.41,0.244-0.902,0.748-1.293,1.48c-0.387,0.73-0.713,2.035-0.695,2.998c0.016,0.758,0.123,1.475,0.199,1.963l0.451,0.295    c-0.002,0-0.002,0-0.004,0l-0.459-0.294c0,0-1.561,0.412-3.324,0.4c-1.242-0.006-1.207-0.656-1.049-1.084    c0.021-0.061,0.045-0.117,0.068-0.166c0.008-0.014,0.014-0.025,0.02-0.039c0.021-0.041,0.043-0.082,0.061-0.107    c0.02-0.033,0.033-0.055,0.033-0.055s0.436-0.764,0.512-1.203c0,0,0.154-1.189-0.969-1.111c-1.121,0.076-1.342,1.053-1.342,1.053    s-0.076,0.547-0.061,0.951c0.014,0.404,0,1.258-0.506,1.744c-0.502,0.486-1.043,0.338-1.043,0.338s-0.908-0.396-1.088-0.49    c-0.143-0.074-0.271-0.08-0.396-0.061C15.061,39.982,15.299,39.031,15.578,38.096z M14.533,51.996l-0.18-0.258    c-0.137-1.254-0.207-2.533-0.207-3.803c0-1.975,0.168-3.949,0.498-5.871l0.152-0.344c0.016-0.031,0.021-0.066,0.027-0.1    c0.145,0.029,0.275,0.094,0.275,0.094s0.775,0.418,1.119,0.488c0.348,0.072,0.598-0.045,0.824-0.199    c0.045-0.031,0.096-0.08,0.145-0.121c0.041-0.035,0.08-0.063,0.121-0.104c0.033-0.031,0.063-0.068,0.094-0.102    c0.055-0.059,0.109-0.113,0.162-0.178c-0.006,0.004-0.012,0.008-0.018,0.014c0.146-0.182,0.27-0.381,0.365-0.584    c-0.004,0.018-0.01,0.035-0.021,0.062c0.041-0.082,0.078-0.162,0.107-0.24c0.018-0.053,0.033-0.115,0.049-0.186    c0.006-0.023,0.01-0.051,0.014-0.076c0.007-0.03,0.013-0.063,0.018-0.095c0.033-0.205,0.057-0.438,0.074-0.653    c0,0.004,0,0.01,0,0.014c0.027-0.342,0.035-0.623,0.035-0.635l0.002,0.008v-0.004l0.002,0.002c0,0,0-0.287-0.008-0.354    c-0.002-0.006-0.002-0.018-0.004-0.027c-0.012-0.096-0.033-0.361,0.143-0.504c0.188-0.16,0.313-0.236,0.779-0.248    c0.463-0.012,0.604,0.258,0.604,0.258s0.158,0.223,0.158,0.365c0,0.142-0.045,0.229-0.045,0.229s-0.254,0.428-0.342,0.637    s-0.434,0.904-0.332,1.484c0,0.002,0,0.002,0,0.002v0.002c0.1,0.58,1.008,0.852,1.008,0.852s0.725,0.172,1.756,0.02l2.127-0.344    l0.371-0.426l0.002,0.006l-0.365,0.418c0.055,0.775,0.115,2.293,0.105,2.803c-0.012,0.623-0.104,1.936-0.76,2.246    c0,0-0.221,0.115-0.592-0.162c-0.371-0.279-0.771-0.291-0.934-0.297c-0.163-0.006-0.877,0.109-1.154,0.893    c-0.279,0.781-0.256,1.834-0.197,2.454c0.059,0.62,0.598,1.676,1.275,1.676c0,0,0.33,0.024,0.721-0.375    c0.387-0.4,0.613-0.437,0.787-0.431c0.176,0.007,0.512,0.187,0.73,1.943c0.211,1.666,0.299,3.028,0.283,4.547l0.402,0.263    c0,0.002,0,0.002,0,0.002c-0.002,0-0.004,0-0.006,0l-0.406-0.265c-0.221,0.026-0.486,0.053-0.76,0.074    c-0.689,0.047-1.689-0.041-2.932-0.408c-1.199-0.354-1.959-0.994-2.111-1.406c-0.004-0.018-0.014-0.034-0.018-0.053    c-0.018-0.063-0.025-0.135-0.029-0.209c-0.002-0.021,0-0.035-0.002-0.056c0.004-0.213,0.051-0.409,0.051-0.409    s0.234-0.898,0.088-1.638c-0.018-0.084-0.035-0.162-0.055-0.242c-0.006-0.026-0.01-0.053-0.012-0.069    c-0.006-0.021-0.012-0.039-0.016-0.06c-0.008-0.016-0.016-0.026-0.021-0.043c-0.162-0.545-0.434-0.989-1.01-1.338    c-0.713-0.43-1.119-0.354-1.119-0.354s-0.641-0.099-0.617,0.985c0.025,1.084,0.16,1.539,0.16,1.539s0.123,0.384-0.074,0.433    c-0.195,0.051-0.504-0.246-0.504-0.246s-0.139-0.127-0.33-0.313c-0.023-0.024-0.049-0.051-0.072-0.078    c-0.129-0.129-0.271-0.274-0.408-0.428l0.063-0.154C14.613,52.213,14.6,52.09,14.533,51.996z M15.775,58.406    c0.002-0.004,0-0.01,0.002-0.01c0.057-0.011,0.396,0.604,0.59,1.188c0.227,0.676,0.379,1.238,0.379,1.238s0.125,0.381,0.115,0.518    C16.453,60.377,16.092,59.398,15.775,58.406z M19.133,65.791l-0.057-0.203c-0.021-0.074-0.066-0.137-0.127-0.182l-0.084-0.063    c-0.637-1.086-1.203-2.198-1.715-3.334c0.002-0.006,0.002-0.021,0.004-0.026c0.006-0.021,0.01-0.045,0.012-0.078    c0-0.021-0.004-0.049-0.004-0.076c-0.004-0.041-0.008-0.088-0.016-0.143c-0.004-0.017-0.002-0.025-0.006-0.043    c-0.002-0.002-0.002-0.002-0.004-0.002c-0.055-0.328-0.203-0.873-0.531-1.757c-0.355-0.965-0.584-1.479-0.729-1.762    c0-0.002,0-0.002,0-0.004c-0.014-0.027-0.025-0.052-0.039-0.072c0,0,0,0.002,0,0.004c-0.121-0.225-0.172-0.26-0.188-0.278    c-0.018-0.021-0.063-0.063-0.092-0.047c-0.445-1.509-0.781-3.05-1.018-4.617c0.055,0.062,0.113,0.131,0.182,0.205v0.002    c0.119,0.133,0.26,0.285,0.426,0.457h0.002c0,0.002,0,0.002,0,0.002c0.74,0.764,0.975,0.283,0.975,0.283s0.012-0.033,0.025-0.099    c0-0.006,0.002-0.017,0.004-0.022c0.004-0.027,0.01-0.06,0.016-0.097c0.002-0.014,0.002-0.026,0.004-0.043    c0.004-0.037,0.01-0.076,0.012-0.121c0-0.008,0.002-0.012,0.002-0.02c0,0.002-0.002,0.004-0.002,0.004    c0.006-0.093,0.006-0.199-0.002-0.322c0,0.002,0,0.006,0.002,0.011c0-0.005-0.002-0.011-0.002-0.013    c-0.004-0.063-0.012-0.129-0.02-0.199c-0.004-0.036-0.008-0.071-0.014-0.112c-0.01-0.072-0.027-0.152-0.045-0.234    c-0.008-0.029-0.012-0.057-0.018-0.088c-0.002-0.004-0.002-0.006-0.004-0.01c-0.127-0.539-0.162-0.941-0.074-1.164    c0.021-0.063,0.059-0.105,0.098-0.142c0.014-0.01,0.027-0.02,0.043-0.026c0.033-0.019,0.074-0.027,0.115-0.031    c0.016-0.002,0.027-0.008,0.043-0.008c0.395,0.014,1.541,0.246,1.896,1.195c0,0,0.148,0.442,0.014,1.008    c-0.137,0.569-0.111,1.071-0.014,1.565c0.1,0.494,0.518,0.959,1,1.345c0.48,0.383,1.873,1.047,3.229,1.133    s1.773,0.014,1.773,0.014l0.504-0.518c0,0.004,0,0.006,0,0.01l-0.506,0.514c-0.029,0.135-0.061,0.283-0.098,0.426    c-0.115,0.465-0.127,0.932-0.016,1.752c0.109,0.826,0.553,2.537,1.195,2.984c0.854,0.594,1.412,0.584,1.99,0.539    c0.574-0.047,0.971-0.486,0.971-0.486s0.225-0.232,0.467-0.162c0.242,0.072,0.918,0.451,1.402,1.422    c0.486,0.974,0.594,2.041-0.215,2.232c-0.809,0.186-2.203-0.578-2.203-0.578s-0.791-0.441-1.438,0.045    c-0.65,0.486-0.668,1.232-0.344,2.148c0.178,0.502,0.533,1.32,1.031,2.172l0.425,0.179l0.054,0.022c0,0,0.002,0,0.004,0.002    l-0.058-0.024l-0.431-0.179c-0.775-0.152-2.211-0.457-2.779-0.74c-0.223-0.111-0.398-0.168-0.523-0.238    c-0.063-0.035-0.113-0.071-0.146-0.121c-0.059-0.086-0.08-0.2-0.057-0.393c0.07-0.523-0.512-1.252-0.512-1.252    s-0.811-0.877-1.541-1.422c-0.729-0.549-1.039-0.385-1.039-0.385s-0.328,0.176-0.033,0.885c0.299,0.707,0.588,0.955,0.588,0.955    s0.141,0.15,0.061,0.191s-0.332-0.15-0.539-0.326c-0.094-0.08-0.48-0.438-0.871-0.801C19.412,66.217,19.266,66.012,19.133,65.791z     M36.725,80.273c0.902,0.121,2.055,0.25,2.447,0.289l0.006-0.004c-0.002,0.062-0.027,0.127-0.064,0.211    c-0.066,0.153,0.078,0.27,0.211,0.34C38.443,80.867,37.578,80.584,36.725,80.273z M39.59,80.375l-0.006-0.004l0.105,0.006    c-0.084-0.076-0.189-0.145-0.307-0.213c-0.002-0.002-0.004-0.004-0.006-0.004c-0.037-0.021-0.07-0.045-0.109-0.064    c-0.477-0.254-2.545-1.621-3.184-2.053c-0.428-0.289-1.068-0.705-1.594-0.908c-0.039-0.016-0.074-0.027-0.107-0.037    c-0.215-0.072-0.408-0.104-0.549-0.062c-0.377,0.117-0.324,0.27-0.547,0.379c-0.17,0.078-0.346,0.061-0.654-0.076    c-0.006-0.004-0.012-0.006-0.018-0.01c-0.104-0.045-0.219-0.104-0.354-0.176c-0.043-0.021-0.08-0.043-0.121-0.064    c-0.066-0.033-0.131-0.068-0.193-0.104c-0.338-0.187-0.686-0.41-1.244-0.9c-0.049-0.043-0.096-0.084-0.148-0.133    c-0.111-0.098-0.227-0.205-0.354-0.326c-0.85-0.807,1.088-0.08,1.088-0.08s0.422,0.178,0.234-0.264    c-0.023-0.051-0.057-0.111-0.098-0.182c-0.021-0.035-0.051-0.078-0.078-0.119c-0.023-0.035-0.045-0.068-0.07-0.107    c-0.037-0.053-0.078-0.109-0.121-0.166c-0.023-0.033-0.047-0.064-0.072-0.098c-0.047-0.063-0.098-0.129-0.15-0.195    c-0.027-0.035-0.057-0.07-0.084-0.105c-0.053-0.065-0.107-0.133-0.164-0.201c-0.039-0.045-0.076-0.092-0.115-0.139    c-0.051-0.059-0.1-0.119-0.152-0.18c-0.063-0.07-0.127-0.143-0.191-0.217c-0.031-0.037-0.063-0.072-0.096-0.109    c-0.078-0.086-0.154-0.17-0.234-0.256c-0.006-0.006-0.011-0.012-0.016-0.018c-0.134-0.146-0.268-0.287-0.4-0.424    c-0.273-0.281-0.494-0.527-0.701-0.771c0.006,0.008,0.012,0.014,0.018,0.021c-0.355-0.414-0.652-0.812-0.973-1.275l-0.378-0.439    c0.003,0.004,0.005,0.008,0.009,0.012l-0.016-0.018l-0.129,0.369c0.334,0.51,0.719,1.008,1.145,1.434c0,0,1.682,1.861,2.617,3.041    c0,0,0.055,0.107-0.107,0.01c-0.162-0.1-0.863-0.422-1.242-0.385c-0.377,0.035-0.307,0.269-0.307,0.269s0.162,0.854,2.734,2.295    c0,0,0.926,0.522,1.512,0.522c0,0,0.188,0.025,0.422-0.235c0.236-0.261,0.307-0.232,0.469-0.179    c0.162,0.051,0.377,0.168,1.188,0.752c0.811,0.586,2.385,1.484,2.949,1.863c0.184,0.123,0.301,0.211,0.377,0.287    c-1.156-0.094-2.426-0.244-3.092-0.34c-0.299-0.117-0.596-0.24-0.889-0.363c-0.143-0.088-0.307-0.188-0.471-0.285    c-0.354-0.215-1.414-0.619-1.414-0.619s-0.109-0.043-0.26-0.098c-1.266-0.643-2.49-1.365-3.666-2.162    c0.205,0.068,0.42,0.104,0.58,0.008c-0.039-0.387-0.48-0.699-0.732-0.889c-0.092-0.07-0.156-0.193-0.242-0.271    c-0.324-0.284-0.701-0.562-1.053-0.811c-0.289-0.201-0.688-0.324-0.945-0.564c-0.009-0.059,0.081-0.203,0.026-0.352    c-0.229-0.611-1.084-1.318-1.619-1.645c-0.246-0.154-0.662-0.225-0.889-0.379c-0.168-0.012-0.256-0.019-0.297,0.104    c-0.066,0.148,0.143,0.354,0.213,0.461c0.188,0.261,0.398,0.563,0.65,0.752c0.188,0.144,0.402,0.269,0.564,0.435h0.082    c-0.105-0.291-0.416-0.447-0.646-0.619c-0.213-0.158-0.307-0.432-0.486-0.621c0.014-0.084,0.023-0.078,0.055-0.135    c0.746,0.006,1.229,0.688,1.564,1.133c0.148,0.199,0.389,0.314,0.404,0.648c-0.08,0-0.148,0-0.188-0.027h-0.082    c0.129,0.355,0.563,0.326,0.865,0.514c0.605,0.375,1.094,0.961,1.617,1.428c0.178,0.16,0.49,0.318,0.539,0.596    c-0.365-0.02-0.625-0.223-0.859-0.379c-0.027-0.018-0.064-0.043-0.094-0.062c-0.346-0.254-0.682-0.518-1.018-0.783    c-0.104-0.1-0.197-0.197-0.266-0.287c-0.055-0.069-0.072-0.18-0.137-0.242c-0.074-0.075-0.178-0.1-0.24-0.188h-0.107    c-0.004,0.049,0.012,0.094,0.025,0.139c-2.391-1.996-4.527-4.336-6.344-6.979c0.035,0.028,0.066,0.057,0.105,0.088    c0.793,0.621,0.994,0.59,1.045,0.535c0.02-0.021,0.021-0.041,0.021-0.041s0.041-0.271-0.203-0.572    c-0.068-0.082-0.146-0.194-0.223-0.313c-0.031-0.051-0.064-0.1-0.094-0.151c-0.094-0.158-0.174-0.324-0.213-0.461    c-0.004-0.011-0.004-0.019-0.006-0.027c-0.01-0.036-0.018-0.073-0.02-0.104c-0.002-0.035,0.004-0.064,0.012-0.092    c0.002-0.004,0-0.015,0.002-0.019c0.1-0.229,0.211-0.209,0.211-0.209s0.092-0.035,0.406,0.203    c0.314,0.237,1.021,0.735,1.371,1.162c0.346,0.422,0.328,0.793,0.328,0.803c0,0-0.004,0.022-0.004,0.065    c-0.004,0.125,0.025,0.421,0.313,0.734c0.379,0.412,1.182,1.168,3.994,1.603c0.016,0.002,0.029,0.002,0.043,0.006l0.129-0.371    l0.004,0.004v-0.002l0.004,0.004l0.003,0.004L27.443,70.3l0.379,0.441c0.004,0,0.008,0,0.012,0.002    c2.449,0.352,3.779,0.383,3.779,0.383s3.213,0.11,4.08,0.11c0.738,0,0.73,0.328,0.713,0.425c-0.004,0.016-0.006,0.024-0.006,0.024    s-0.049,0.244-0.154,0.439c-0.066,0.123-0.189,0.457-0.209,0.787c-0.012,0.197,0.014,0.393,0.111,0.541    c0,0,0.398,0.973,2.988,1.043c0,0,2.266,0.182,3.848-0.469c0.496-0.205,0.695-0.437,0.736-0.654    c0.094-0.477-0.582-0.904-0.582-0.904s-0.541-0.328-0.771-0.504c-0.104-0.08-0.135-0.162-0.135-0.236    c0-0.076,0.031-0.143,0.051-0.198c0.041-0.109,0.203-0.242,0.385-0.334c0.182-0.093,0.848-0.445,3.658-1.177    c2.814-0.727,4.492-0.805,4.492-0.805s0.016-0.002,0.027-0.004c0.27,0.654,0.477,1.016,0.889,1.463    c0.44,0.48,1.141,0.854,1.965,1.17c0.826,0.314,0.451,0.873,0.451,0.873c-0.471,1.021-1.875,1.063-2.287,1.111    c-0.414,0.049-1.277,0.129-2.086,0.305c-0.807,0.178-1.563,0.285-2.016,0.807c-0.449,0.521-0.273,1.062-0.008,1.631    c0.264,0.568,0.973,0.873,1.945,0.837c0.973-0.039,1.604-0.324,2.19-0.58c0.59-0.257,1.611-0.552,1.918-0.64    c0.303-0.088,0.717-0.266,1.021,0.179c0.328,0.477,0.678,1.155,0.838,1.67l0.373-0.082c0,0.002,0,0.002,0,0.004    c-0.066,0.017-0.125,0.026-0.174,0.039c-0.111,0.022-0.172,0.039-0.172,0.039s-0.826,0.198-2.201,0.731s-4.074,0.976-4.074,0.976    s-0.877,0.102-1.441,0.241c0.064-0.021,0.119-0.032,0.119-0.032s0.652-0.134,1.308-0.22c0,0-1.733,0.199-1.895,0.427    c-0.055,0.09-0.049,0.159-0.018,0.215c0.043,0.09,0.154,0.137,0.154,0.137s0.246,0.152,1.139,0.191c0,0,0.307,0,0.32,0.024    c0.002,0.002,0.002,0.004,0.002,0.004c0.004,0.006,0.006,0.013,0.004,0.021c0,0.002-0.002,0.004-0.002,0.006    c-0.006,0.011-0.019,0.021-0.047,0.035c-0.027,0.013-0.062,0.024-0.118,0.043c-0.195,0.062-0.582,0.213-1.893,0.379    c-0.869,0.111-1.15,0.058-1.244,0.006c-0.053-0.026-0.049-0.053-0.049-0.053s-0.002-0.017,0.004-0.037    c0.006-0.022,0.02-0.062,0.049-0.106c0.014-0.023,0.021-0.051,0.021-0.082c0.002-0.088-0.064-0.201-0.221-0.287    c0-0.002-0.053-0.033-0.186-0.072c0,0,0.012,0.004,0.023,0.012c-0.172-0.053-0.504-0.119-1.086-0.115    c-0.961,0.006-2.873,0.013-4.66-0.094C39.67,80.379,39.629,80.377,39.59,80.375z M43.816,82.035    c-0.594-0.082-1.184-0.176-1.77-0.287c0.354-0.018,0.596-0.033,0.898,0.029c0.43,0.09,0.873,0.199,0.916,0.233    C43.877,82.025,43.852,82.031,43.816,82.035z M50.814,82.281c0.469-0.062,1.028-0.098,1.34-0.131    c0.133-0.015,0.219-0.019,0.281-0.017C51.898,82.197,51.357,82.246,50.814,82.281z M53.266,82.035    c-0.037-0.025-0.133-0.047-0.35-0.057c-0.195-0.009-0.395-0.006-0.596,0c-0.283,0.002-0.654,0.014-0.992,0.062    c-0.236,0.033-0.471,0.072-0.678,0.109c-0.066,0.01-0.131,0.016-0.197,0.024c-0.439,0.064-0.637,0.121-0.729,0.16    c-0.384,0.015-0.765,0.029-1.15,0.029c-1.375,0-2.732-0.093-4.074-0.246c0.041-0.043-0.055-0.099-0.119-0.129    c-0.033-0.017-0.061-0.027-0.061-0.027s-0.059-0.026-0.182-0.067c0,0-0.002,0-0.002,0.002c-0.012-0.006-0.023-0.011-0.037-0.015    c0.006,0.002,0.016,0.004,0.02,0.004c-0.066-0.021-0.16-0.049-0.264-0.075c0,0-0.006-0.002-0.01-0.002    c-0.078-0.021-0.166-0.043-0.264-0.063c-0.002-0.002-0.004-0.002-0.006-0.002c-0.205-0.045-0.449-0.091-0.744-0.127    c0.01,0.004,0.02,0.004,0.029,0.006c-0.154-0.021-0.32-0.037-0.5-0.052c0,0-0.549-0.036-1.025,0.011    c-0.021,0.002-0.041,0-0.063,0.002c0.004-0.002,0.008-0.002,0.012-0.002c-0.008,0-0.014,0-0.02,0    c-0.354-0.076-0.707-0.156-1.059-0.242c-0.195-0.078-0.48-0.228-0.365-0.379c0.086-0.112,0.094-0.229,0.045-0.342    c0.752,0.047,1.74,0.1,1.74,0.1s2.031,0.076,3.141-0.014c0.5-0.043,0.346,0.217,0.346,0.217s-0.145,0.24,0.141,0.359    c0,0,0.525,0.301,2.279,0.106c1.756-0.193,2.141-0.588,2.141-0.588s0.203-0.188-0.239-0.27c-0.025-0.006-0.045-0.01-0.068-0.014    c-0.01-0.004-0.023-0.011-0.027-0.011c-0.006,0-0.01,0-0.014-0.002c-0.006-0.002-0.01-0.002-0.014-0.004    c-0.006,0-0.006-0.002-0.011-0.002c-0.004,0-0.01,0-0.014-0.002c-0.002,0-0.007,0-0.011,0s-0.008-0.002-0.012-0.002    c-0.002,0-0.008-0.002-0.012-0.004c-0.004,0-0.008,0-0.012,0c-0.004-0.002-0.008-0.002-0.012-0.002c-0.002,0-0.008,0-0.011-0.003    c-0.004,0-0.008,0-0.012,0c-0.002-0.002-0.006-0.002-0.009-0.002c-0.008-0.002-0.012-0.004-0.014-0.004c-0.004,0-0.004,0-0.006,0    c-0.008,0-0.016,0-0.02,0c0,0-0.002,0-0.004-0.002c-0.004,0-0.01,0-0.014,0c-0.002-0.002-0.004-0.002-0.009-0.002    c-0.004,0-0.008,0-0.014,0c-0.005,0-0.005,0-0.007,0c-0.004,0-0.008,0-0.012,0c0,0-0.006,0-0.008,0    c-0.004,0-0.01-0.002-0.012-0.002s0,0.002-0.002,0.002c-0.004,0-0.01,0-0.014,0s-0.004,0-0.006,0    c-0.025-0.004-0.054-0.004-0.086-0.006c-0.002,0-0.002,0-0.002,0c-0.008,0-0.012-0.002-0.016-0.002c-0.002,0-0.006,0-0.008,0    c-0.004,0-0.008,0-0.016,0c-0.002-0.002-0.006-0.002-0.008-0.002c-0.004,0-0.01-0.002-0.014-0.002c-0.004,0-0.008,0-0.012,0    s-0.008,0-0.014,0c-0.006,0-0.012-0.002-0.018-0.004c-0.004,0-0.008,0-0.014,0s-0.012,0-0.02,0c-0.002,0-0.006-0.002-0.01-0.002    c-0.006,0-0.014,0-0.018,0c-0.004-0.002-0.008-0.002-0.014-0.002c-0.004,0-0.012,0-0.018-0.002c-0.004,0-0.008,0-0.014,0    c-0.006-0.002-0.012-0.002-0.018-0.002c-0.004-0.002-0.012-0.002-0.016-0.002c-0.006,0-0.014-0.002-0.02-0.002    c-0.004-0.002-0.008-0.002-0.014-0.002c-0.008,0-0.016-0.002-0.023-0.004c-0.004,0-0.01,0-0.014,0    c-0.014-0.002-0.025-0.004-0.039-0.004c-0.098-0.013-0.186-0.021-0.258-0.037l-0.107-0.015c-0.166-0.047-0.195-0.104,0-0.155    c0.301-0.078,0.801-0.119,0.801-0.119s1.533-0.215,2.771-0.535c0,0,1.322-0.312,2.634-0.773c0.516-0.18,0.95-0.312,1.286-0.408    l0.298-0.436v0.002l-0.291,0.432c0.063,0.445-0.07,0.597-0.175,0.763c-0.104,0.178-0.401,0.403-0.256,0.809    c0.148,0.402,1.15,0.272,1.73,0.101c0.58-0.179,1.068-0.336,1.453-0.476c0.385-0.133,0.492,0.06,0.492,0.06    s0.166,0.121-0.393,0.414c-0.123,0.063-0.271,0.121-0.429,0.172c-0.022,0.006-0.039,0.014-0.063,0.02    c-0.125,0.039-0.256,0.07-0.387,0.1c-0.035,0.008-0.068,0.019-0.104,0.023c-0.111,0.023-0.219,0.045-0.326,0.064    c-0.045,0.008-0.088,0.016-0.133,0.021c-0.088,0.017-0.174,0.027-0.254,0.039c-0.049,0.008-0.096,0.015-0.141,0.021    c-0.091,0.012-0.181,0.022-0.248,0.03c-0.062,0.009-0.111,0.013-0.156,0.019c-0.025,0.002-0.049,0.002-0.072,0.004    c-0.014,0.002-0.031,0.002-0.045,0.004c-0.029,0.002-0.057,0.002-0.082,0.004c-0.02,0.002-0.037,0.004-0.057,0.006    c-0.009,0.002-0.019,0.002-0.027,0.004C56.051,80.594,56.025,80.6,56,80.605c-0.006,0-0.01,0-0.014,0.002    c-0.109,0.023-0.262,0.068-0.555,0.172c-0.738,0.257-0.05,0.482-0.05,0.482c0.373,0.096,0.718,0.148,1.033,0.18    C55.389,81.686,54.334,81.887,53.266,82.035z M67.338,76.703c-0.012,0.016-0.029,0.031-0.043,0.045    c-3.09,2.02-6.51,3.559-10.148,4.508c-0.326-0.025-0.555-0.07-0.674-0.086c-0.293-0.041-0.531-0.1-0.6-0.246    c-0.008-0.02-0.01-0.035-0.006-0.047c0.029-0.098,0.332-0.09,0.332-0.09s0.064-0.008,0.164-0.021    c0.297-0.039,0.965-0.143,1.664-0.336c0.127-0.035,0.256-0.072,0.383-0.113c1.061-0.346,1.316-0.668,1.275-0.914    c-0.006-0.036-0.025-0.065-0.054-0.09c-0.01-0.008-0.021-0.016-0.03-0.021c-0.021-0.017-0.052-0.026-0.082-0.037    c-0.015-0.004-0.029-0.01-0.045-0.014c-0.045-0.009-0.093-0.015-0.146-0.017c-0.01,0-0.016-0.002-0.025-0.002    c-0.062,0-0.131,0.006-0.203,0.017c-0.014,0-0.021,0-0.033,0.002c0.007-0.002,0.013,0,0.019,0    c-0.183,0.021-0.394,0.069-0.617,0.143c-0.639,0.209-1.592,0.513-1.813,0.562c-0.055,0.012-0.111,0.02-0.166,0.022    c0.006-0.002,0.008-0.002,0.014-0.002c-0.082,0.007-0.158,0-0.227-0.016c-0.01-0.002-0.021-0.005-0.027-0.009    c-0.062-0.02-0.117-0.049-0.145-0.098c-0.002,0-0.002,0-0.002,0c-0.078-0.139-0.148-0.361,0.1-0.617    c0.244-0.258,0.273-0.473,0.273-0.473c0.022-0.113,0.026-0.23,0.024-0.35c0-0.029-0.002-0.059-0.004-0.088    c-0.004-0.037-0.002-0.07-0.009-0.107c0.043-0.01,0.068-0.014,0.068-0.014s1.574-0.367,2.232-0.48    c0.66-0.113,2.15-0.434,2.789-0.74c0.631-0.307,0.951-0.549,1.025-0.731c0.071-0.187-0.269-0.293-0.269-0.293    s-0.401-0.097-0.349-0.232c0.054-0.141,0.199-0.262,0.828-0.541c0.625-0.28,1.41-0.586,2.199-0.78    c0.787-0.191,0.5,0.133,0.5,0.133s-0.471,0.479-0.533,0.668c-0.059,0.186,0.021,0.193,0.08,0.227    c0.062,0.035,0.441,0.02,0.697-0.045c0.262-0.068,2.361-0.867,3.643-1.602c0.033-0.019,0.064-0.037,0.095-0.055l0.269-0.443v0.002    c0,0,0,0,0,0.002c-0.015,0.021-0.021,0.039-0.035,0.061c-0.384,0.619-0.543,0.975-0.543,0.975s-0.193,0.375-0.213,0.591    c-0.017,0.213-0.173,0.186-0.173,0.186s-0.325-0.018-0.797,0.183c-0.015,0.006-0.024,0.008-0.039,0.014    c0,0-0.021,0.01-0.053,0.027c-0.152,0.072-0.32,0.172-0.492,0.299c-0.033,0.021-0.063,0.039-0.097,0.062    c-0.02,0.016-0.038,0.029-0.057,0.043c-0.502,0.412-0.85,0.764-1.047,0.98c-0.008,0.012-0.018,0.023-0.025,0.035    c-0.104,0.115-0.157,0.184-0.157,0.184s-0.289,0.385-0.011,0.385c0.279,0,0.937-0.338,1.188-0.561    C67.465,76.518,67.338,76.703,67.338,76.703z M73.367,71.605c-0.439,0.485-0.66,0.686-0.66,0.686s-0.076,0.078-0.156,0.176    l-0.008,0.01c-0.002,0.002-0.004,0.008-0.008,0.01c-0.055,0.066-0.107,0.138-0.139,0.201c-1.437,1.381-2.988,2.64-4.644,3.758    c0.035-0.055,0.052-0.1,0.026-0.116c-0.002-0.002,0-0.002,0-0.002c-0.088-0.068-0.426,0.174-0.426,0.174s-0.051,0.043-0.127,0.099    l0.002-0.002c-0.094,0.067-0.227,0.155-0.36,0.225c-0.037,0.02-0.074,0.037-0.111,0.051c-0.022,0.01-0.045,0.018-0.065,0.023    c-0.049,0.016-0.099,0.024-0.14,0.022c-0.27-0.022,0.328-0.592,0.328-0.592s0.347-0.392,0.769-0.631    c0.143-0.08,0.291-0.144,0.438-0.171c0.588-0.104,0.697-0.252,0.984-0.473c0.098-0.072,0.168-0.152,0.238-0.262    c0.145-0.215,0.297-0.559,0.69-1.275c0.022-0.041,0.047-0.08,0.067-0.121c0.754-0.422,1.021-0.553,1.199-0.658    c0.807-0.479,1.769-1.063,2.021-1.264C73.289,71.473,73.807,71.119,73.367,71.605z M78.238,65.326    c0.207-0.451,0.379-0.93,0.586-1.396c0.205-0.465,0.5-0.922,0.484-1.592c-0.031-0.029-0.058-0.068-0.08-0.107h-0.164    c-0.162,0.14-0.39,0.203-0.566,0.324c-0.273,0.193-0.516,0.449-0.781,0.648c-0.119,0.092-0.295,0.172-0.377,0.297    c-0.137,0.203-0.111,0.551-0.271,0.729v0.107c0.216-0.078,0.316-0.33,0.486-0.459c0.209-0.156,0.383-0.367,0.592-0.514    c0.133-0.092,0.281-0.141,0.406-0.242c0.086,0.016,0.078,0.025,0.137,0.055c-0.016,0.686-0.375,1.17-0.596,1.674    c-0.062,0.146-0.082,0.375-0.188,0.484c-0.051,0.051-0.156,0.062-0.213,0.107c-0.182,0.197-0.361,0.395-0.543,0.594    c-0.17,0.236-0.248,0.549-0.433,0.783c-0.002,0.076-0.002,0.146,0.025,0.188c0.028,0.021,0.075,0.039,0.108,0.055    c0.297-0.28,0.582-0.526,0.84-0.836c-1.17,1.842-2.508,3.562-3.991,5.146c0.03-0.039,0.062-0.078,0.09-0.115    c0.015-0.02,0.022-0.033,0.032-0.049c0.21-0.289,0.064-0.273,0.064-0.273s-0.046-0.006-0.177,0.045    c-0.021,0.008-0.039,0.017-0.063,0.027c-0.013,0.004-0.019,0.006-0.031,0.012l0.002,0.002c-0.1,0.047-0.229,0.117-0.406,0.229    c-0.545,0.349-0.932,0.586-0.932,0.586s-1.174,0.672-1.92,1.106c-0.006,0.004-0.017,0.009-0.021,0.013    c0.002-0.002,0.002-0.004,0.004-0.004c0.006-0.005,0.014-0.011,0.02-0.013c-0.006,0.002-0.014,0.008-0.02,0.011    c0.537-0.837,1.17-1.566,1.65-2.104c0.588-0.656,1.295-1.721,1.295-1.721s0.438-0.752,0.453-1.098    c0.002-0.051-0.004-0.092-0.02-0.123c-0.009-0.014-0.031-0.012-0.046-0.021c-0.014-0.008-0.026-0.021-0.049-0.022    c-0.164-0.025-0.515,0.151-1.058,0.557c-0.487,0.365-0.885,0.615-1.213,0.789c-0.016,0.006-0.028,0.01-0.043,0.016    c0.015-0.006,0.029-0.014,0.043-0.02c-0.188,0.084-0.377,0.15-0.545,0.168c-0.438,0.047-0.592-0.215-0.635-0.496    c-0.023-0.168-0.008-0.344,0.008-0.463c0.049-0.32,0.213-1.055,0.726-1.344c0.512-0.293,1.228-0.281,1.729-0.353    c0.504-0.065,0.733-0.211,0.733-0.211s0.819-0.521,1.36-1.399c0.543-0.881,1.025-2.299,1.082-3.709    c0-0.017-0.002-0.029-0.002-0.045c0.006-0.142,0.002-0.271-0.006-0.394c-0.002-0.047-0.008-0.09-0.012-0.136    c-0.01-0.094-0.021-0.182-0.037-0.264c-0.006-0.037-0.012-0.074-0.02-0.108c-0.023-0.105-0.049-0.205-0.08-0.296h0.002    c1.35-1.071,2.641-2.436,2.641-2.436s0.855-0.859,1.287-1.607c0.033-0.057,0.059-0.096,0.082-0.127    c0.006-0.01,0.014-0.02,0.02-0.026c0.019-0.021,0.033-0.037,0.045-0.045c0.002,0,0.004-0.002,0.007-0.004    c0.012-0.005,0.02,0.002,0.024,0.012c0,0.004,0.002,0.008,0.002,0.013c0.004,0.014,0.006,0.03,0.004,0.055    c0,0.004-0.002,0.01-0.002,0.014c0,0.002,0,0.006,0,0.006s-0.352,0.982-0.229,1.471c0,0.004,0,0.008,0,0.013    c0-0.005-0.002-0.007-0.004-0.011c0.002,0.011,0.004,0.021,0.004,0.029c0.006,0.1,0.02,0.197,0.041,0.289    c0.006,0.027,0.014,0.053,0.023,0.08c0.028,0.096,0.067,0.186,0.127,0.252c0,0.002,0,0.004,0.002,0.006    c0.012,0.012,0.027,0.012,0.041,0.021c0.301,0.209,1.024-0.562,1.024-0.562s0.472-0.539,0.658-1.406    c0.174-0.799,0.181-1.198,0.16-1.385c-0.013-0.113-0.033-0.147-0.033-0.147s-0.168-0.267-0.063-0.584    c0.008-0.023,0.025-0.07,0.039-0.111c0.174-0.471,0.756-1.916,1.263-2.555C82.32,56.447,80.705,61.164,78.238,65.326z     M77.609,65.873c-0.035,0.268-0.238,0.508-0.435,0.623v0.025h-0.026c0.049-0.324,0.293-0.412,0.406-0.648H77.609z M79.66,56.529    c-0.029,0.109-0.051,0.188-0.051,0.188s-0.004,0.019-0.008,0.033c0.002-0.012,0.008-0.035,0.008-0.035S79.631,56.639,79.66,56.529    z M82.938,50.105l-0.164,0.278c-0.055,0.093-0.063,0.203-0.022,0.304l0.074,0.182c-0.005,0.006-0.007,0.01-0.009,0.016    c-0.002,0-0.004,0.002-0.006,0.004c-0.008,0.014-0.02,0.033-0.028,0.049c-0.125,0.197-0.277,0.443-0.468,0.756    c-0.862,1.423-1,2.57-1,2.57s-0.082,0.445-0.037,0.705c0.011,0.053,0.021,0.096,0.033,0.137c0.002,0.004,0.002,0.009,0.002,0.011    c0.015,0.041,0.025,0.075,0.037,0.106c0,0,0.002,0.002,0.002,0.004c0,0,0,0,0.002,0.002c0.015,0.037,0.027,0.072,0.037,0.101    c0.004,0.004,0.004,0.008,0.006,0.014c0.006,0.019,0.013,0.035,0.013,0.052c0.004,0.032-0.009,0.172-0.048,0.36    c-0.006,0.037-0.016,0.074-0.024,0.111c-0.008,0.032-0.017,0.065-0.024,0.102c-0.021,0.074-0.045,0.154-0.074,0.236    c-0.008,0.026-0.021,0.055-0.031,0.082c-0.035,0.092-0.076,0.187-0.125,0.278c-0.006,0.013-0.01,0.025-0.018,0.037    c-0.299,0.558-0.558,0.703-0.558,0.703s-0.516,0.373-0.586,0.107c-0.069-0.266-0.051-0.49-0.022-0.658    c0.022-0.17,0.197-1.076,0.172-1.412c-0.025-0.338-0.326-0.068-0.326-0.068s-0.07,0.082-0.203,0.25s-0.879,1.117-1.164,1.449    c-0.674,0.789-1.285,1.355-2.926,2.68c-0.006,0.002-0.012,0.009-0.014,0.011c-0.006-0.006-0.011-0.013-0.015-0.019    c-0.063-0.104-0.123-0.188-0.18-0.262c-0.072-0.094-0.138-0.17-0.181-0.227c-0.192-0.248-0.545-0.139-0.977-1.178    c-0.43-1.037-0.529-1.922-0.52-2.533c0-0.088,0.004-0.168,0.008-0.242c0.039-0.607,0.186-0.84,0.465-1.102    c0.281-0.261,1.518-0.146,1.518-0.146s0.607,0.125,1.15-0.772c0.402-0.668,0.482-1.652,0.426-2.414    c-0.018-0.265-0.055-0.502-0.1-0.691c-0.174-0.734-0.424-1.373-1.43-1.479c-1.004-0.104-1.457,1.133-1.457,1.133    s-0.203,0.473-0.416,0.744c-0.213,0.27-0.791,0.192-0.791,0.192c-0.252-0.028-0.56,0.067-0.861-0.553    c-0.299-0.617-0.984-2.24-0.984-2.24c-0.23-0.551-0.379-1.031-0.469-1.4l-0.492-0.203l-0.002-0.002l0.492,0.199    c0.697-0.383,1.887-1.078,2.736-1.793c1.274-1.074,2.521-2.199,2.84-2.482c0.318-0.285,0.609-0.512,0.891-0.498    c0.283,0.014,0.5,0.215,0.676,0.977c0.176,0.762,0.209,1.391,0.289,1.762c0.08,0.369,0.195,0.801,0.637,0.889    c0.439,0.088,1.031-0.297,1.252-0.486c0.058-0.047,0.127-0.123,0.197-0.223c0.002-0.006,0.008-0.014,0.012-0.018    c0.029-0.045,0.06-0.09,0.091-0.143c0.17-0.297,0.321-0.732,0.307-1.248c0,0,0.046-1.094-0.521-2.131c0,0-0.237-0.42-0.325-0.535    c-0.062-0.08-0.104-0.162-0.006-0.355c0.024-0.049,0.057-0.107,0.098-0.172c0.123-0.195,0.317-0.441,0.623-0.613    c0.306-0.174,0.601-0.215,0.769-0.27c0,0,0.188-0.045,0.428-0.178l-0.002-0.004h0.002c0.004,0.006,0.006,0.012,0.008,0.02    c0.357,1.117,0.771,2.979,0.771,2.979s0.129,0.547,0.143,0.799c0.014,0.254-0.043,0.26-0.156,0.127    c-0.111-0.133-0.225-0.049-0.225-0.049s-0.119,0.049-0.119,0.527s0.057,1.6,0.146,2.465c0.104,1.027,0.422,1.455,0.422,1.455    s0.281,0.422,0.356-0.393c0.004-0.031,0.006-0.047,0.011-0.072c0.012,0.375,0.034,0.75,0.034,1.125    C83.006,48.645,82.982,49.375,82.938,50.105z" data-original="#000000" class="active-path" data-old_color="#000000" fill="#393737"/>
		<path d="M65.791,76.396H65.52c-0.178,0.143-0.471,0.162-0.674,0.271    c-0.18,0.097-0.396,0.228-0.566,0.353c-0.141,0.1-0.223,0.285-0.352,0.401c0.002,0.136,0.004,0.156,0.109,0.188    c0.025,0.021,0.006,0.013,0.051,0.027c0.029-0.031,0.055-0.043,0.082-0.082c0.023-0.016-0.02-0.07-0.027-0.158    c0.262-0.264,0.455-0.407,0.838-0.565c0.099-0.041,0.306-0.16,0.433-0.082h0.055c-0.018,0.267-0.625,1.086-0.811,1.215v0.078    c0.495-0.129,0.827-1.121,1.159-1.481c-0.008-0.063-0.006-0.076-0.026-0.107L65.791,76.396z" data-original="#000000" class="active-path" data-old_color="#000000" fill="#393737"/>
		<path d="M63.633,78.395c-0.16,0.144-0.551,0.156-0.729,0.297h-0.027    c0.07-0.102,0.197-0.146,0.27-0.241c0.054-0.07,0.074-0.154,0.136-0.216c-0.013-0.055-0.009-0.051-0.025-0.079V78.1    c-0.789-0.145-2.104,0.535-2.51,0.894c-0.106,0.092-0.17,0.229-0.271,0.323c0.002,0.076,0.01,0.115,0.026,0.162    c0.479,0.031,1.375-0.262,1.481-0.646c0.021-0.019,0.009-0.002,0-0.026v-0.056c-0.325-0.019-0.768,0.051-0.969,0.242h-0.027    c0.177-0.271,0.835-0.511,1.187-0.621c0.117-0.037,0.375-0.103,0.486-0.027c0.024,0.013,0.053,0.019,0.08,0.027    c-0.063,0.271-0.447,0.569-0.701,0.646v0.056c0.414-0.097,0.793-0.283,1.158-0.433c0.252-0.102,0.536-0.129,0.758-0.27    c0.153-0.102,0.687-0.822,0.728-1.025C64.059,77.439,64.008,78.055,63.633,78.395z M61.5,78.934v0.082    c-0.051,0.033-0.088,0.105-0.135,0.133c-0.141,0.082-0.326,0.072-0.461,0.162c-0.062-0.008-0.074-0.006-0.105-0.026h-0.027    C60.846,79.053,61.291,78.947,61.5,78.934z" data-original="#000000" class="active-path" data-old_color="#000000" fill="#393737"/>
		<path d="M79.014,48.984c0.06,0.147,0.172,0.395,0.297,0.483    c0.06,0.043,0.09,0.027,0.133,0.082c0.896,0.076,1.259-1.463,0.894-2.348c-0.063-0.154-0.353-0.604-0.621-0.432h-0.055    c0.019-0.047,0.008-0.025,0.026-0.055c0-0.129-0.014-0.172-0.053-0.242c-0.053-0.01-0.105-0.018-0.162-0.027    c-0.025,0.021-0.006,0.01-0.053,0.027c0.02,0.164,0.076,0.168,0.082,0.35C79.064,47.223,78.693,48.176,79.014,48.984z     M79.307,47.555c0.062-0.146,0.182-0.24,0.271-0.352c0.055-0.012,0.051-0.008,0.078-0.029c0.207,0,0.264,0.041,0.379,0.109    c0.205,0.486,0.236,1.332-0.105,1.701c-0.053,0.057-0.156,0.078-0.215,0.135C79.148,49.076,79.104,48.045,79.307,47.555z" data-original="#000000" class="active-path" data-old_color="#000000" fill="#393737"/>
		<path d="M81.225,48.822v-0.432c-0.065-0.31-0.041-0.722-0.106-1.023    c-0.13-0.602-0.015-1.314-0.242-1.809c-0.135-0.033-0.269-0.059-0.457-0.055c-0.069,0.07-0.123,0.107-0.106,0.189    c0.055,0.244,0.371,0.295,0.457,0.539c0.012,0.117,0.018,0.234,0.026,0.352c0.093,0.383,0.076,0.877,0.16,1.27v0.322    c0.045,0.197,0.108,0.707,0.056,0.865c-0.097,0.278-0.398,0.53-0.593,0.729c-0.515,0.514-1.119,1.168-2.024,1.266    c-0.019,0.047-0.008,0.027-0.027,0.055c0.014,0.338,0.324,0.271,0.539,0.406c0.055-0.01,0.109-0.02,0.162-0.029    c0.082-0.049,0.131-0.164,0.188-0.242c0.137-0.178,0.385-0.272,0.514-0.459h0.027c0,0.824,0.018,1.748,0.027,2.537h0.078    c0.186-0.799,0.172-1.781,0.162-2.754c0.354-0.332,0.582-0.812,0.944-1.133v-0.053h0.027c0.006,0.854,0.024,1.725,0.024,2.588    c0,0.277-0.067,0.941,0,1.055v0.16h0.056c0.071-0.289,0.092-0.697,0.161-1.023v-0.459c0.08-0.363,0.078-1.065,0-1.432    C81.182,49.799,81.316,49.244,81.225,48.822z" data-original="#000000" class="active-path" data-old_color="#000000" fill="#393737"/>
		<path d="M43.232,78.688c0.205,0.076,0.371,0.275,0.566,0.379    c0.52,0.271,1.379,0.496,2.16,0.326c0.383-0.086,0.779-0.086,0.889-0.434c0.121-0.189-0.047-0.455-0.105-0.564    c-0.252-0.449-0.584-0.742-1-1.024c-1.373-0.938-3.4-1.892-5.748-1.834c-0.113,0.071-0.342,0.016-0.484,0.055    c-0.195,0.052-0.316,0.152-0.457,0.242c-0.006,0.662,0.984,1.021,1.537,1.158c0.33,0.082,0.619-0.072,0.811-0.138    c0.146-0.559-0.529-0.641-0.838-0.918h-0.055v-0.024c2.07-0.082,3.621,0.496,4.803,1.377c0.297,0.221,0.635,0.532,0.783,0.891    c0.055,0.134,0.078,0.353,0,0.46c-0.109,0.301-0.467,0.272-0.811,0.352c-0.791,0.184-1.879-0.266-2.24-0.619    c-0.072,0.127,0.033,0.326-0.08,0.459c-0.121,0.326-0.537,0.24-0.918,0.322c-0.625,0.137-1.605-0.185-1.969-0.43    c-0.104-0.07-0.176-0.195-0.27-0.271c-0.006-0.068-0.014-0.092-0.029-0.135c0.055-0.049,0.121-0.127,0.162-0.188    c0.777-0.06,1.172-0.019,1.621,0.406c-0.012,0.053-0.008,0.049-0.029,0.077c-0.049,0.104-0.168,0.115-0.322,0.109v0.049    c0.283,0.004,0.404-0.039,0.566-0.133c0.008-0.055,0.018-0.107,0.027-0.16c-0.094-0.096-0.158-0.225-0.271-0.299    c-0.443-0.291-1.357-0.438-1.861-0.107c-0.078,0.384,0.158,0.591,0.379,0.755c0.439,0.334,0.813,0.524,1.43,0.7    c0.199,0.058,0.377,0.007,0.594,0.054c0.191,0.043,0.523,0.053,0.729,0c0.344-0.088,0.822-0.449,0.432-0.865v-0.026H43.232z     M40.75,76.127c0.096,0.064,0.15,0.199,0.242,0.27c-0.002,0.068-0.002,0.103-0.025,0.138c-0.176,0.477-1.166,0.123-1.404-0.056    c-0.074-0.055-0.105-0.17-0.162-0.242c0.012-0.057,0.008-0.053,0.029-0.077c0.074-0.209,0.285-0.14,0.457-0.242    C40.23,75.916,40.539,75.984,40.75,76.127z" data-original="#000000" class="active-path" data-old_color="#000000" fill="#393737"/>
		<path d="M79.551,60.451c-0.098,0.088-0.24,0.111-0.35,0.189    c-0.342,0.243-0.699,0.653-0.945,0.998c-0.195,0.272-0.363,0.573-0.539,0.862c-0.076,0.129-0.094,0.274-0.189,0.377v0.056    c0.236-0.039,0.375-0.193,0.541-0.298c0.449-0.276,0.853-0.532,1.269-0.834c0.199-0.147,0.351-0.377,0.563-0.516    c0.021-0.322,0.086-0.576-0.053-0.812C79.764,60.461,79.668,60.451,79.551,60.451z M79.229,61.422    c-0.164,0.119-0.319,0.289-0.485,0.404c-0.144,0.102-0.313,0.154-0.433,0.271h-0.026c0.09-0.277,0.559-0.757,0.78-0.916    c0.115-0.087,0.263-0.107,0.379-0.191h0.107c0.025,0.031,0.023,0.031,0.055,0.055C79.58,61.248,79.361,61.32,79.229,61.422z" data-original="#000000" class="active-path" data-old_color="#000000" fill="#393737"/>
	</g>
</g></g> </svg>
